%TF.GenerationSoftware,KiCad,Pcbnew,9.0.0*%
%TF.CreationDate,2025-04-07T20:23:24+05:30*%
%TF.ProjectId,arduino nano clone,61726475-696e-46f2-906e-616e6f20636c,rev?*%
%TF.SameCoordinates,Original*%
%TF.FileFunction,Soldermask,Bot*%
%TF.FilePolarity,Negative*%
%FSLAX46Y46*%
G04 Gerber Fmt 4.6, Leading zero omitted, Abs format (unit mm)*
G04 Created by KiCad (PCBNEW 9.0.0) date 2025-04-07 20:23:24*
%MOMM*%
%LPD*%
G01*
G04 APERTURE LIST*
G04 Aperture macros list*
%AMRoundRect*
0 Rectangle with rounded corners*
0 $1 Rounding radius*
0 $2 $3 $4 $5 $6 $7 $8 $9 X,Y pos of 4 corners*
0 Add a 4 corners polygon primitive as box body*
4,1,4,$2,$3,$4,$5,$6,$7,$8,$9,$2,$3,0*
0 Add four circle primitives for the rounded corners*
1,1,$1+$1,$2,$3*
1,1,$1+$1,$4,$5*
1,1,$1+$1,$6,$7*
1,1,$1+$1,$8,$9*
0 Add four rect primitives between the rounded corners*
20,1,$1+$1,$2,$3,$4,$5,0*
20,1,$1+$1,$4,$5,$6,$7,0*
20,1,$1+$1,$6,$7,$8,$9,0*
20,1,$1+$1,$8,$9,$2,$3,0*%
G04 Aperture macros list end*
%ADD10R,1.700000X1.700000*%
%ADD11O,1.700000X1.700000*%
%ADD12C,1.000000*%
%ADD13R,0.500000X1.500000*%
%ADD14R,3.000000X1.800000*%
%ADD15RoundRect,0.200000X0.275000X-0.200000X0.275000X0.200000X-0.275000X0.200000X-0.275000X-0.200000X0*%
%ADD16RoundRect,0.200000X0.200000X0.275000X-0.200000X0.275000X-0.200000X-0.275000X0.200000X-0.275000X0*%
%ADD17RoundRect,0.243750X0.456250X-0.243750X0.456250X0.243750X-0.456250X0.243750X-0.456250X-0.243750X0*%
%ADD18RoundRect,0.225000X0.250000X-0.225000X0.250000X0.225000X-0.250000X0.225000X-0.250000X-0.225000X0*%
%ADD19R,1.600000X0.550000*%
%ADD20R,0.550000X1.600000*%
%ADD21RoundRect,0.250000X1.000000X0.650000X-1.000000X0.650000X-1.000000X-0.650000X1.000000X-0.650000X0*%
%ADD22C,2.000000*%
G04 APERTURE END LIST*
D10*
%TO.C,J3*%
X176377380Y-73380000D03*
D11*
X176377380Y-75920000D03*
X176377380Y-78460000D03*
X176377380Y-81000000D03*
X176377380Y-83540000D03*
X176377380Y-86080000D03*
X176377380Y-88620000D03*
X176377380Y-91160000D03*
X176377380Y-93700000D03*
X176377380Y-96240000D03*
X176377380Y-98780000D03*
X176377380Y-101320000D03*
X176377380Y-103860000D03*
X176377380Y-106400000D03*
X176377380Y-108940000D03*
%TD*%
D10*
%TO.C,J4*%
X130627380Y-73420000D03*
D11*
X130627380Y-75960000D03*
X130627380Y-78500000D03*
X130627380Y-81040000D03*
X130627380Y-83580000D03*
X130627380Y-86120000D03*
X130627380Y-88660000D03*
X130627380Y-91200000D03*
X130627380Y-93740000D03*
X130627380Y-96280000D03*
X130627380Y-98820000D03*
X130627380Y-101360000D03*
X130627380Y-103900000D03*
X130627380Y-106440000D03*
X130627380Y-108980000D03*
%TD*%
D12*
%TO.C,J1*%
X151627380Y-59900000D03*
X157627380Y-59900000D03*
D13*
X156227380Y-63350000D03*
X155427380Y-63350000D03*
X154627380Y-63350000D03*
X153827380Y-63350000D03*
X153027380Y-63350000D03*
D14*
X149877380Y-62200000D03*
X159377380Y-62200000D03*
%TD*%
D15*
%TO.C,R2*%
X136877380Y-109305000D03*
X136877380Y-107655000D03*
%TD*%
D16*
%TO.C,R5*%
X171452380Y-81250000D03*
X169802380Y-81250000D03*
%TD*%
D17*
%TO.C,D3*%
X153377380Y-102187500D03*
X153377380Y-100312500D03*
%TD*%
D10*
%TO.C,J2*%
X157402380Y-130025000D03*
D11*
X157402380Y-127485000D03*
X154862380Y-130025000D03*
X154862380Y-127485000D03*
X152322380Y-130025000D03*
X152322380Y-127485000D03*
%TD*%
D15*
%TO.C,R1*%
X143532380Y-109305000D03*
X143532380Y-107655000D03*
%TD*%
D16*
%TO.C,R3*%
X171277380Y-72000000D03*
X169627380Y-72000000D03*
%TD*%
D18*
%TO.C,16MHz1*%
X139377380Y-76300000D03*
X139377380Y-74750000D03*
%TD*%
D19*
%TO.C,U1*%
X157627380Y-71450000D03*
X157627380Y-72250000D03*
X157627380Y-73050000D03*
X157627380Y-73850000D03*
X157627380Y-74650000D03*
X157627380Y-75450000D03*
X157627380Y-76250000D03*
X157627380Y-77050000D03*
D20*
X156177380Y-78500000D03*
X155377380Y-78500000D03*
X154577380Y-78500000D03*
X153777380Y-78500000D03*
X152977380Y-78500000D03*
X152177380Y-78500000D03*
X151377380Y-78500000D03*
X150577380Y-78500000D03*
D19*
X149127380Y-77050000D03*
X149127380Y-76250000D03*
X149127380Y-75450000D03*
X149127380Y-74650000D03*
X149127380Y-73850000D03*
X149127380Y-73050000D03*
X149127380Y-72250000D03*
X149127380Y-71450000D03*
D20*
X150577380Y-70000000D03*
X151377380Y-70000000D03*
X152177380Y-70000000D03*
X152977380Y-70000000D03*
X153777380Y-70000000D03*
X154577380Y-70000000D03*
X155377380Y-70000000D03*
X156177380Y-70000000D03*
%TD*%
D17*
%TO.C,D2*%
X160127380Y-102125000D03*
X160127380Y-100250000D03*
%TD*%
D16*
%TO.C,R4*%
X171452380Y-76510000D03*
X169802380Y-76510000D03*
%TD*%
%TO.C,R6*%
X171452380Y-86500000D03*
X169802380Y-86500000D03*
%TD*%
D21*
%TO.C,D1*%
X169127380Y-91500000D03*
X165127380Y-91500000D03*
%TD*%
D22*
%TO.C,SW1*%
X156877380Y-89000000D03*
X150377380Y-89000000D03*
X156877380Y-93500000D03*
X150377380Y-93500000D03*
%TD*%
D17*
%TO.C,D4*%
X147377380Y-101937500D03*
X147377380Y-100062500D03*
%TD*%
M02*
