%TF.GenerationSoftware,KiCad,Pcbnew,9.0.0*%
%TF.CreationDate,2025-04-07T20:23:24+05:30*%
%TF.ProjectId,arduino nano clone,61726475-696e-46f2-906e-616e6f20636c,rev?*%
%TF.SameCoordinates,Original*%
%TF.FileFunction,Soldermask,Top*%
%TF.FilePolarity,Negative*%
%FSLAX46Y46*%
G04 Gerber Fmt 4.6, Leading zero omitted, Abs format (unit mm)*
G04 Created by KiCad (PCBNEW 9.0.0) date 2025-04-07 20:23:24*
%MOMM*%
%LPD*%
G01*
G04 APERTURE LIST*
G04 Aperture macros list*
%AMRoundRect*
0 Rectangle with rounded corners*
0 $1 Rounding radius*
0 $2 $3 $4 $5 $6 $7 $8 $9 X,Y pos of 4 corners*
0 Add a 4 corners polygon primitive as box body*
4,1,4,$2,$3,$4,$5,$6,$7,$8,$9,$2,$3,0*
0 Add four circle primitives for the rounded corners*
1,1,$1+$1,$2,$3*
1,1,$1+$1,$4,$5*
1,1,$1+$1,$6,$7*
1,1,$1+$1,$8,$9*
0 Add four rect primitives between the rounded corners*
20,1,$1+$1,$2,$3,$4,$5,0*
20,1,$1+$1,$4,$5,$6,$7,0*
20,1,$1+$1,$6,$7,$8,$9,0*
20,1,$1+$1,$8,$9,$2,$3,0*%
G04 Aperture macros list end*
%ADD10R,1.700000X1.700000*%
%ADD11O,1.700000X1.700000*%
%ADD12RoundRect,0.225000X-0.225000X-0.250000X0.225000X-0.250000X0.225000X0.250000X-0.225000X0.250000X0*%
%ADD13RoundRect,0.375000X0.625000X0.375000X-0.625000X0.375000X-0.625000X-0.375000X0.625000X-0.375000X0*%
%ADD14RoundRect,0.500000X0.500000X1.400000X-0.500000X1.400000X-0.500000X-1.400000X0.500000X-1.400000X0*%
%ADD15RoundRect,0.250000X-0.325000X-0.650000X0.325000X-0.650000X0.325000X0.650000X-0.325000X0.650000X0*%
%ADD16R,1.750000X0.450000*%
%ADD17C,1.000000*%
%ADD18C,2.000000*%
G04 APERTURE END LIST*
D10*
%TO.C,J3*%
X176377380Y-73380000D03*
D11*
X176377380Y-75920000D03*
X176377380Y-78460000D03*
X176377380Y-81000000D03*
X176377380Y-83540000D03*
X176377380Y-86080000D03*
X176377380Y-88620000D03*
X176377380Y-91160000D03*
X176377380Y-93700000D03*
X176377380Y-96240000D03*
X176377380Y-98780000D03*
X176377380Y-101320000D03*
X176377380Y-103860000D03*
X176377380Y-106400000D03*
X176377380Y-108940000D03*
%TD*%
D12*
%TO.C,C7*%
X137577380Y-86500000D03*
X139127380Y-86500000D03*
%TD*%
D13*
%TO.C,U6*%
X157027380Y-118050000D03*
X157027380Y-115750000D03*
D14*
X150727380Y-115750000D03*
D13*
X157027380Y-113450000D03*
%TD*%
D15*
%TO.C,C2*%
X136627380Y-93250000D03*
X139577380Y-93250000D03*
%TD*%
D12*
%TO.C,C3*%
X166377380Y-99750000D03*
X167927380Y-99750000D03*
%TD*%
%TO.C,C5*%
X165127380Y-84750000D03*
X166677380Y-84750000D03*
%TD*%
D15*
%TO.C,C6*%
X136402380Y-99750000D03*
X139352380Y-99750000D03*
%TD*%
D12*
%TO.C,0.1mF1*%
X165102380Y-79500000D03*
X166652380Y-79500000D03*
%TD*%
%TO.C,C4*%
X165102380Y-73500000D03*
X166652380Y-73500000D03*
%TD*%
D16*
%TO.C,U3*%
X150027380Y-73275000D03*
X150027380Y-73925000D03*
X150027380Y-74575000D03*
X150027380Y-75225000D03*
X150027380Y-75875000D03*
X150027380Y-76525000D03*
X150027380Y-77175000D03*
X150027380Y-77825000D03*
X150027380Y-78475000D03*
X150027380Y-79125000D03*
X150027380Y-79775000D03*
X150027380Y-80425000D03*
X150027380Y-81075000D03*
X150027380Y-81725000D03*
X157227380Y-81725000D03*
X157227380Y-81075000D03*
X157227380Y-80425000D03*
X157227380Y-79775000D03*
X157227380Y-79125000D03*
X157227380Y-78475000D03*
X157227380Y-77825000D03*
X157227380Y-77175000D03*
X157227380Y-76525000D03*
X157227380Y-75875000D03*
X157227380Y-75225000D03*
X157227380Y-74575000D03*
X157227380Y-73925000D03*
X157227380Y-73275000D03*
%TD*%
D10*
%TO.C,J4*%
X130627380Y-73420000D03*
D11*
X130627380Y-75960000D03*
X130627380Y-78500000D03*
X130627380Y-81040000D03*
X130627380Y-83580000D03*
X130627380Y-86120000D03*
X130627380Y-88660000D03*
X130627380Y-91200000D03*
X130627380Y-93740000D03*
X130627380Y-96280000D03*
X130627380Y-98820000D03*
X130627380Y-101360000D03*
X130627380Y-103900000D03*
X130627380Y-106440000D03*
X130627380Y-108980000D03*
%TD*%
D17*
%TO.C,J1*%
X151627380Y-59900000D03*
X157627380Y-59900000D03*
%TD*%
D10*
%TO.C,J2*%
X157402380Y-130025000D03*
D11*
X157402380Y-127485000D03*
X154862380Y-130025000D03*
X154862380Y-127485000D03*
X152322380Y-130025000D03*
X152322380Y-127485000D03*
%TD*%
D18*
%TO.C,SW1*%
X156877380Y-89000000D03*
X150377380Y-89000000D03*
X156877380Y-93500000D03*
X150377380Y-93500000D03*
%TD*%
M02*
