%TF.GenerationSoftware,KiCad,Pcbnew,9.0.0*%
%TF.CreationDate,2025-04-07T20:23:24+05:30*%
%TF.ProjectId,arduino nano clone,61726475-696e-46f2-906e-616e6f20636c,rev?*%
%TF.SameCoordinates,Original*%
%TF.FileFunction,Copper,L10,Bot*%
%TF.FilePolarity,Positive*%
%FSLAX46Y46*%
G04 Gerber Fmt 4.6, Leading zero omitted, Abs format (unit mm)*
G04 Created by KiCad (PCBNEW 9.0.0) date 2025-04-07 20:23:24*
%MOMM*%
%LPD*%
G01*
G04 APERTURE LIST*
G04 Aperture macros list*
%AMRoundRect*
0 Rectangle with rounded corners*
0 $1 Rounding radius*
0 $2 $3 $4 $5 $6 $7 $8 $9 X,Y pos of 4 corners*
0 Add a 4 corners polygon primitive as box body*
4,1,4,$2,$3,$4,$5,$6,$7,$8,$9,$2,$3,0*
0 Add four circle primitives for the rounded corners*
1,1,$1+$1,$2,$3*
1,1,$1+$1,$4,$5*
1,1,$1+$1,$6,$7*
1,1,$1+$1,$8,$9*
0 Add four rect primitives between the rounded corners*
20,1,$1+$1,$2,$3,$4,$5,0*
20,1,$1+$1,$4,$5,$6,$7,0*
20,1,$1+$1,$6,$7,$8,$9,0*
20,1,$1+$1,$8,$9,$2,$3,0*%
G04 Aperture macros list end*
%TA.AperFunction,ComponentPad*%
%ADD10R,1.700000X1.700000*%
%TD*%
%TA.AperFunction,ComponentPad*%
%ADD11O,1.700000X1.700000*%
%TD*%
%TA.AperFunction,SMDPad,CuDef*%
%ADD12R,0.500000X1.500000*%
%TD*%
%TA.AperFunction,SMDPad,CuDef*%
%ADD13R,3.000000X1.800000*%
%TD*%
%TA.AperFunction,SMDPad,CuDef*%
%ADD14RoundRect,0.200000X0.275000X-0.200000X0.275000X0.200000X-0.275000X0.200000X-0.275000X-0.200000X0*%
%TD*%
%TA.AperFunction,SMDPad,CuDef*%
%ADD15RoundRect,0.200000X0.200000X0.275000X-0.200000X0.275000X-0.200000X-0.275000X0.200000X-0.275000X0*%
%TD*%
%TA.AperFunction,SMDPad,CuDef*%
%ADD16RoundRect,0.243750X0.456250X-0.243750X0.456250X0.243750X-0.456250X0.243750X-0.456250X-0.243750X0*%
%TD*%
%TA.AperFunction,SMDPad,CuDef*%
%ADD17RoundRect,0.225000X0.250000X-0.225000X0.250000X0.225000X-0.250000X0.225000X-0.250000X-0.225000X0*%
%TD*%
%TA.AperFunction,SMDPad,CuDef*%
%ADD18R,1.600000X0.550000*%
%TD*%
%TA.AperFunction,SMDPad,CuDef*%
%ADD19R,0.550000X1.600000*%
%TD*%
%TA.AperFunction,SMDPad,CuDef*%
%ADD20RoundRect,0.250000X1.000000X0.650000X-1.000000X0.650000X-1.000000X-0.650000X1.000000X-0.650000X0*%
%TD*%
%TA.AperFunction,ComponentPad*%
%ADD21C,2.000000*%
%TD*%
%TA.AperFunction,ViaPad*%
%ADD22C,0.600000*%
%TD*%
%TA.AperFunction,Conductor*%
%ADD23C,0.100000*%
%TD*%
%TA.AperFunction,Conductor*%
%ADD24C,0.200000*%
%TD*%
%TA.AperFunction,Conductor*%
%ADD25C,0.010000*%
%TD*%
G04 APERTURE END LIST*
D10*
%TO.P,J3,1,Pin_1*%
%TO.N,/D1{slash}TX*%
X176377380Y-73380000D03*
D11*
%TO.P,J3,2,Pin_2*%
%TO.N,/D0{slash}RX*%
X176377380Y-75920000D03*
%TO.P,J3,3,Pin_3*%
%TO.N,/RESET*%
X176377380Y-78460000D03*
%TO.P,J3,4,Pin_4*%
%TO.N,GND*%
X176377380Y-81000000D03*
%TO.P,J3,5,Pin_5*%
%TO.N,/D2*%
X176377380Y-83540000D03*
%TO.P,J3,6,Pin_6*%
%TO.N,/D3*%
X176377380Y-86080000D03*
%TO.P,J3,7,Pin_7*%
%TO.N,/D4*%
X176377380Y-88620000D03*
%TO.P,J3,8,Pin_8*%
%TO.N,/D5*%
X176377380Y-91160000D03*
%TO.P,J3,9,Pin_9*%
%TO.N,/D6*%
X176377380Y-93700000D03*
%TO.P,J3,10,Pin_10*%
%TO.N,/D7*%
X176377380Y-96240000D03*
%TO.P,J3,11,Pin_11*%
%TO.N,/D8*%
X176377380Y-98780000D03*
%TO.P,J3,12,Pin_12*%
%TO.N,/D9*%
X176377380Y-101320000D03*
%TO.P,J3,13,Pin_13*%
%TO.N,/D10*%
X176377380Y-103860000D03*
%TO.P,J3,14,Pin_14*%
%TO.N,/D11{slash}MOSI*%
X176377380Y-106400000D03*
%TO.P,J3,15,Pin_15*%
%TO.N,/D12{slash}MISO*%
X176377380Y-108940000D03*
%TD*%
D10*
%TO.P,J4,1,Pin_1*%
%TO.N,VCC*%
X130627380Y-73420000D03*
D11*
%TO.P,J4,2,Pin_2*%
%TO.N,GND*%
X130627380Y-75960000D03*
%TO.P,J4,3,Pin_3*%
%TO.N,/RESET*%
X130627380Y-78500000D03*
%TO.P,J4,4,Pin_4*%
%TO.N,+5V*%
X130627380Y-81040000D03*
%TO.P,J4,5,Pin_5*%
%TO.N,/A7*%
X130627380Y-83580000D03*
%TO.P,J4,6,Pin_6*%
%TO.N,/A6*%
X130627380Y-86120000D03*
%TO.P,J4,7,Pin_7*%
%TO.N,/A5*%
X130627380Y-88660000D03*
%TO.P,J4,8,Pin_8*%
%TO.N,/A4*%
X130627380Y-91200000D03*
%TO.P,J4,9,Pin_9*%
%TO.N,/A3*%
X130627380Y-93740000D03*
%TO.P,J4,10,Pin_10*%
%TO.N,/A2*%
X130627380Y-96280000D03*
%TO.P,J4,11,Pin_11*%
%TO.N,/A1*%
X130627380Y-98820000D03*
%TO.P,J4,12,Pin_12*%
%TO.N,/A0*%
X130627380Y-101360000D03*
%TO.P,J4,13,Pin_13*%
%TO.N,/AREF*%
X130627380Y-103900000D03*
%TO.P,J4,14,Pin_14*%
%TO.N,+3V3*%
X130627380Y-106440000D03*
%TO.P,J4,15,Pin_15*%
%TO.N,/D13{slash}SCK*%
X130627380Y-108980000D03*
%TD*%
D12*
%TO.P,J1,1,VBUS*%
%TO.N,VCC*%
X156227380Y-63350000D03*
%TO.P,J1,2,D-*%
%TO.N,unconnected-(J1-D--Pad2)*%
X155427380Y-63350000D03*
%TO.P,J1,3,D+*%
%TO.N,Net-(J1-D+)*%
X154627380Y-63350000D03*
%TO.P,J1,4,ID*%
%TO.N,Net-(J1-ID)*%
X153827380Y-63350000D03*
%TO.P,J1,5,GND*%
%TO.N,GND*%
X153027380Y-63350000D03*
D13*
%TO.P,J1,6,Shield*%
X149877380Y-62200000D03*
X159377380Y-62200000D03*
%TD*%
D14*
%TO.P,R2,1*%
%TO.N,/D0{slash}RX*%
X136877380Y-109305000D03*
%TO.P,R2,2*%
%TO.N,/RX*%
X136877380Y-107655000D03*
%TD*%
D15*
%TO.P,R5,1*%
%TO.N,Net-(U3-CBUS1)*%
X171452380Y-81250000D03*
%TO.P,R5,2*%
%TO.N,Net-(D3-A)*%
X169802380Y-81250000D03*
%TD*%
D16*
%TO.P,D3,1,K*%
%TO.N,+5V*%
X153377380Y-102187500D03*
%TO.P,D3,2,A*%
%TO.N,Net-(D3-A)*%
X153377380Y-100312500D03*
%TD*%
D10*
%TO.P,J2,1,Pin_1*%
%TO.N,/D12{slash}MISO*%
X157402380Y-130025000D03*
D11*
%TO.P,J2,2,Pin_2*%
%TO.N,+5V*%
X157402380Y-127485000D03*
%TO.P,J2,3,Pin_3*%
%TO.N,/D13{slash}SCK*%
X154862380Y-130025000D03*
%TO.P,J2,4,Pin_4*%
%TO.N,/D11{slash}MOSI*%
X154862380Y-127485000D03*
%TO.P,J2,5,Pin_5*%
%TO.N,/RESET*%
X152322380Y-130025000D03*
%TO.P,J2,6,Pin_6*%
%TO.N,GND*%
X152322380Y-127485000D03*
%TD*%
D14*
%TO.P,R1,1*%
%TO.N,+5V*%
X143532380Y-109305000D03*
%TO.P,R1,2*%
%TO.N,Net-(U1-~{RESET}{slash}PC6)*%
X143532380Y-107655000D03*
%TD*%
D15*
%TO.P,R3,1*%
%TO.N,/D1{slash}TX*%
X171277380Y-72000000D03*
%TO.P,R3,2*%
%TO.N,/TX*%
X169627380Y-72000000D03*
%TD*%
D17*
%TO.P,16MHz1,1,1*%
%TO.N,Net-(U1-XTAL2{slash}PB7)*%
X139377380Y-76300000D03*
%TO.P,16MHz1,2,2*%
%TO.N,Net-(U1-XTAL1{slash}PB6)*%
X139377380Y-74750000D03*
%TD*%
D18*
%TO.P,U1,1,PD3*%
%TO.N,/D3*%
X157627380Y-71450000D03*
%TO.P,U1,2,PD4*%
%TO.N,/D4*%
X157627380Y-72250000D03*
%TO.P,U1,3,GND*%
%TO.N,GND*%
X157627380Y-73050000D03*
%TO.P,U1,4,VCC*%
%TO.N,+5V*%
X157627380Y-73850000D03*
%TO.P,U1,5,GND*%
%TO.N,GND*%
X157627380Y-74650000D03*
%TO.P,U1,6,VCC*%
%TO.N,+5V*%
X157627380Y-75450000D03*
%TO.P,U1,7,XTAL1/PB6*%
%TO.N,Net-(U1-XTAL1{slash}PB6)*%
X157627380Y-76250000D03*
%TO.P,U1,8,XTAL2/PB7*%
%TO.N,Net-(U1-XTAL2{slash}PB7)*%
X157627380Y-77050000D03*
D19*
%TO.P,U1,9,PD5*%
%TO.N,/D5*%
X156177380Y-78500000D03*
%TO.P,U1,10,PD6*%
%TO.N,/D6*%
X155377380Y-78500000D03*
%TO.P,U1,11,PD7*%
%TO.N,/D7*%
X154577380Y-78500000D03*
%TO.P,U1,12,PB0*%
%TO.N,/D8*%
X153777380Y-78500000D03*
%TO.P,U1,13,PB1*%
%TO.N,/D9*%
X152977380Y-78500000D03*
%TO.P,U1,14,PB2*%
%TO.N,/D10*%
X152177380Y-78500000D03*
%TO.P,U1,15,PB3*%
%TO.N,/D11{slash}MOSI*%
X151377380Y-78500000D03*
%TO.P,U1,16,PB4*%
%TO.N,/D12{slash}MISO*%
X150577380Y-78500000D03*
D18*
%TO.P,U1,17,PB5*%
%TO.N,/D13{slash}SCK*%
X149127380Y-77050000D03*
%TO.P,U1,18,AVCC*%
%TO.N,+5V*%
X149127380Y-76250000D03*
%TO.P,U1,19,ADC6*%
%TO.N,/A6*%
X149127380Y-75450000D03*
%TO.P,U1,20,AREF*%
%TO.N,/AREF*%
X149127380Y-74650000D03*
%TO.P,U1,21,GND*%
%TO.N,GND*%
X149127380Y-73850000D03*
%TO.P,U1,22,ADC7*%
%TO.N,/A7*%
X149127380Y-73050000D03*
%TO.P,U1,23,PC0*%
%TO.N,/A0*%
X149127380Y-72250000D03*
%TO.P,U1,24,PC1*%
%TO.N,/A1*%
X149127380Y-71450000D03*
D19*
%TO.P,U1,25,PC2*%
%TO.N,/A2*%
X150577380Y-70000000D03*
%TO.P,U1,26,PC3*%
%TO.N,/A3*%
X151377380Y-70000000D03*
%TO.P,U1,27,PC4*%
%TO.N,/A4*%
X152177380Y-70000000D03*
%TO.P,U1,28,PC5*%
%TO.N,/A5*%
X152977380Y-70000000D03*
%TO.P,U1,29,~{RESET}/PC6*%
%TO.N,Net-(U1-~{RESET}{slash}PC6)*%
X153777380Y-70000000D03*
%TO.P,U1,30,PD0*%
%TO.N,/D0{slash}RX*%
X154577380Y-70000000D03*
%TO.P,U1,31,PD1*%
%TO.N,/D1{slash}TX*%
X155377380Y-70000000D03*
%TO.P,U1,32,PD2*%
%TO.N,/D2*%
X156177380Y-70000000D03*
%TD*%
D16*
%TO.P,D2,1,K*%
%TO.N,+5V*%
X160127380Y-102125000D03*
%TO.P,D2,2,A*%
%TO.N,Net-(D2-A)*%
X160127380Y-100250000D03*
%TD*%
D15*
%TO.P,R4,1*%
%TO.N,Net-(U3-CBUS0)*%
X171452380Y-76510000D03*
%TO.P,R4,2*%
%TO.N,Net-(D2-A)*%
X169802380Y-76510000D03*
%TD*%
%TO.P,R6,1*%
%TO.N,+5V*%
X171452380Y-86500000D03*
%TO.P,R6,2*%
%TO.N,Net-(D4-A)*%
X169802380Y-86500000D03*
%TD*%
D20*
%TO.P,D1,1,K*%
%TO.N,+5V*%
X169127380Y-91500000D03*
%TO.P,D1,2,A*%
%TO.N,GND*%
X165127380Y-91500000D03*
%TD*%
D21*
%TO.P,SW1,1,1*%
%TO.N,Net-(U1-~{RESET}{slash}PC6)*%
X156877380Y-89000000D03*
X150377380Y-89000000D03*
%TO.P,SW1,2,2*%
%TO.N,GND*%
X156877380Y-93500000D03*
X150377380Y-93500000D03*
%TD*%
D16*
%TO.P,D4,1,K*%
%TO.N,GND*%
X147377380Y-101937500D03*
%TO.P,D4,2,A*%
%TO.N,Net-(D4-A)*%
X147377380Y-100062500D03*
%TD*%
D22*
%TO.N,*%
X162450000Y-76200000D03*
X136560000Y-78940000D03*
X163450000Y-74150000D03*
X141450000Y-79000000D03*
%TO.N,GND*%
X150754760Y-105500000D03*
X145504760Y-98250000D03*
X159480000Y-72190000D03*
X158254760Y-83500000D03*
X163379178Y-75876996D03*
X170254760Y-97750000D03*
X145600000Y-76440000D03*
%TO.N,/AREF*%
X155852378Y-76370000D03*
X163504760Y-82250000D03*
%TO.N,Net-(U1-XTAL2{slash}PB7)*%
X155004760Y-76500000D03*
X136754760Y-74500000D03*
%TO.N,Net-(U1-XTAL1{slash}PB6)*%
X140254760Y-72000000D03*
X161504760Y-77750000D03*
X159254760Y-78500000D03*
%TO.N,+5V*%
X137960000Y-83200000D03*
X136504760Y-102500000D03*
X147310000Y-74840000D03*
X165270000Y-69810000D03*
X159399791Y-75366031D03*
X153494760Y-76480000D03*
X149004760Y-110000000D03*
X164754760Y-97000000D03*
X146254760Y-110000000D03*
X163780000Y-69810000D03*
%TO.N,Net-(U3-DTR)*%
X141754760Y-68250000D03*
X145754760Y-74250000D03*
%TO.N,Net-(D4-A)*%
X167254760Y-86500000D03*
X163254760Y-86500000D03*
X161004760Y-88750000D03*
%TO.N,VCC*%
X148754760Y-122750000D03*
X134754760Y-75250000D03*
X133254760Y-106750000D03*
X134754760Y-81000000D03*
X154127380Y-65250000D03*
X152254760Y-123500000D03*
X135754760Y-83000000D03*
%TO.N,Net-(J1-D+)*%
X162004760Y-83500000D03*
X157004760Y-65250000D03*
%TO.N,Net-(J1-ID)*%
X163424760Y-79790000D03*
X154354760Y-82050000D03*
X159014760Y-81750000D03*
X161834760Y-78840000D03*
X158254760Y-65000000D03*
X163374760Y-83280000D03*
%TO.N,/D12{slash}MISO*%
X146882281Y-76482719D03*
%TO.N,/D13{slash}SCK*%
X146442939Y-75325001D03*
%TO.N,/D11{slash}MOSI*%
X159504760Y-92250000D03*
X167754760Y-106500000D03*
X160504760Y-93500000D03*
X159754760Y-96500000D03*
X147004760Y-84250000D03*
X153004760Y-75500000D03*
%TO.N,/D8*%
X151504760Y-80500000D03*
%TO.N,/D4*%
X155852378Y-74560000D03*
X158055760Y-68301000D03*
%TO.N,/D3*%
X160254760Y-74000000D03*
X155254760Y-74000000D03*
%TO.N,/D0{slash}RX*%
X151084760Y-66820000D03*
X158877380Y-67750000D03*
%TO.N,/D7*%
X145754760Y-91000000D03*
X172504760Y-100250000D03*
X152254760Y-81250000D03*
%TO.N,/D6*%
X154504760Y-81250000D03*
%TO.N,/D2*%
X155504760Y-71500000D03*
X163090000Y-71249000D03*
%TO.N,/D9*%
X151504760Y-75500000D03*
%TO.N,/D1{slash}TX*%
X152004760Y-66750000D03*
X162004760Y-68750000D03*
%TO.N,/D10*%
X152174760Y-79920000D03*
X146414760Y-81840000D03*
X144204760Y-79260000D03*
%TO.N,/D5*%
X155504760Y-81000000D03*
%TO.N,/A0*%
X147004760Y-72000000D03*
%TO.N,/A1*%
X146754760Y-70300003D03*
%TO.N,/A6*%
X146554762Y-74499000D03*
%TO.N,/A3*%
X141754760Y-69500000D03*
X146754760Y-69500000D03*
%TO.N,/A2*%
X148754760Y-69750000D03*
X143254760Y-66750000D03*
%TO.N,/A4*%
X150424760Y-68330000D03*
%TO.N,/A7*%
X152134760Y-77200000D03*
X151894760Y-73860000D03*
%TO.N,/A5*%
X153354760Y-73410000D03*
%TO.N,Net-(U1-~{RESET}{slash}PC6)*%
X144504760Y-100250000D03*
X154153760Y-73960000D03*
X147754760Y-68000000D03*
X144254760Y-68750000D03*
X142504760Y-103000000D03*
%TO.N,/RX*%
X142004760Y-70750000D03*
X138754760Y-106500000D03*
%TO.N,/TX*%
X143254760Y-77250000D03*
X160805760Y-75449000D03*
%TO.N,Net-(U3-CBUS0)*%
X173184760Y-69360000D03*
%TO.N,Net-(U3-CBUS1)*%
X165004760Y-76000000D03*
%TD*%
D23*
%TO.N,GND*%
X147227380Y-73850000D02*
X149127380Y-73850000D01*
X158877380Y-91500000D02*
X156877380Y-93500000D01*
X145877380Y-72500000D02*
X147227380Y-73850000D01*
X158404380Y-73050000D02*
X158830000Y-72624380D01*
X158974760Y-74202620D02*
X158527380Y-74650000D01*
X149877380Y-62200000D02*
X148927380Y-62200000D01*
X158527380Y-74650000D02*
X157627380Y-74650000D01*
X148927380Y-62200000D02*
X145877380Y-65250000D01*
D24*
X169754760Y-98250000D02*
X170254760Y-97750000D01*
X164153760Y-92473620D02*
X164153760Y-97248943D01*
X165127380Y-91500000D02*
X164153760Y-92473620D01*
D23*
X151877380Y-62200000D02*
X153027380Y-63350000D01*
D24*
X150754760Y-105500000D02*
X150754760Y-103750000D01*
D23*
X145877380Y-65250000D02*
X145877380Y-72500000D01*
X165127380Y-91500000D02*
X158004760Y-84377380D01*
D24*
X145504760Y-100064880D02*
X145504760Y-98250000D01*
D23*
X148976380Y-73699000D02*
X145526528Y-73699000D01*
X145150000Y-76020000D02*
X145540000Y-76410000D01*
D24*
X147377380Y-101937500D02*
X145504760Y-100064880D01*
X164153760Y-97248943D02*
X165154817Y-98250000D01*
D23*
X153027380Y-64929232D02*
X153027380Y-63350000D01*
X157627380Y-73050000D02*
X158527380Y-73050000D01*
X149877380Y-62200000D02*
X158678380Y-71001000D01*
D24*
X150754760Y-103750000D02*
X148942260Y-101937500D01*
D23*
X158678380Y-71001000D02*
X158678380Y-72776000D01*
X145526528Y-73699000D02*
X145150000Y-74075528D01*
X165127380Y-91500000D02*
X158877380Y-91500000D01*
X158678380Y-72776000D02*
X158404380Y-73050000D01*
D24*
X148942260Y-101937500D02*
X147377380Y-101937500D01*
D23*
X158527380Y-73050000D02*
X158974760Y-73497380D01*
X158830000Y-70731852D02*
X153027380Y-64929232D01*
X158004760Y-83750000D02*
X158254760Y-83500000D01*
D24*
X165154817Y-98250000D02*
X169504760Y-98250000D01*
D23*
X158974760Y-73497380D02*
X158974760Y-74202620D01*
X158004760Y-84377380D02*
X158004760Y-83750000D01*
X158830000Y-72624380D02*
X158830000Y-70731852D01*
D25*
X159480000Y-72190000D02*
X158620000Y-73050000D01*
X158620000Y-73050000D02*
X157627380Y-73050000D01*
D23*
X157627380Y-73050000D02*
X158404380Y-73050000D01*
X145150000Y-74075528D02*
X145150000Y-76020000D01*
X149127380Y-73850000D02*
X148976380Y-73699000D01*
X159377380Y-62200000D02*
X149877380Y-62200000D01*
D24*
X169504760Y-98250000D02*
X169754760Y-98250000D01*
D23*
X149877380Y-62200000D02*
X151877380Y-62200000D01*
%TO.N,/AREF*%
X155232992Y-75949000D02*
X155103760Y-75949000D01*
X154654760Y-75500000D02*
X153783992Y-75500000D01*
X155852378Y-76370000D02*
X155555760Y-76370000D01*
X149129380Y-74648000D02*
X149127380Y-74650000D01*
X155555760Y-76271768D02*
X155232992Y-75949000D01*
X155103760Y-75949000D02*
X154654760Y-75500000D01*
X153783992Y-75500000D02*
X152931992Y-74648000D01*
X155555760Y-76370000D02*
X155555760Y-76271768D01*
X152931992Y-74648000D02*
X149129380Y-74648000D01*
D24*
%TO.N,Net-(U1-XTAL2{slash}PB7)*%
X136754760Y-74500000D02*
X138554760Y-76300000D01*
X138554760Y-76300000D02*
X139377380Y-76300000D01*
X155554760Y-77050000D02*
X155004760Y-76500000D01*
X157627380Y-77050000D02*
X155554760Y-77050000D01*
%TO.N,Net-(U1-XTAL1{slash}PB6)*%
X158504380Y-76250000D02*
X157627380Y-76250000D01*
X159254760Y-77000380D02*
X158504380Y-76250000D01*
X139377380Y-74750000D02*
X139377380Y-72877380D01*
X139377380Y-72877380D02*
X140254760Y-72000000D01*
X159254760Y-78500000D02*
X159254760Y-77000380D01*
D25*
%TO.N,+5V*%
X158954760Y-75370000D02*
X158874760Y-75450000D01*
X148317380Y-76250000D02*
X149127380Y-76250000D01*
D24*
X176854140Y-87469000D02*
X177528380Y-88143240D01*
D23*
X146254760Y-110000000D02*
X145504760Y-110000000D01*
X144809760Y-109305000D02*
X143532380Y-109305000D01*
D25*
X147310000Y-74840000D02*
X147310000Y-75242620D01*
D24*
X153439880Y-102125000D02*
X153377380Y-102187500D01*
X177528380Y-88143240D02*
X177528380Y-89096760D01*
X157627380Y-73850000D02*
X156750380Y-73850000D01*
X177528380Y-89096760D02*
X176854140Y-89771000D01*
X171452380Y-86500000D02*
X172421380Y-87469000D01*
D25*
X158874760Y-75450000D02*
X157627380Y-75450000D01*
D23*
X143309760Y-109305000D02*
X136504760Y-102500000D01*
D25*
X147310000Y-75242620D02*
X148317380Y-76250000D01*
D23*
X153377380Y-102187500D02*
X153377380Y-109627380D01*
X153004760Y-110000000D02*
X149004760Y-110000000D01*
D24*
X169127380Y-92627380D02*
X164754760Y-97000000D01*
D23*
X153377380Y-109627380D02*
X153004760Y-110000000D01*
D24*
X172421380Y-87469000D02*
X176854140Y-87469000D01*
D25*
X159399791Y-75366031D02*
X159395822Y-75370000D01*
D24*
X156750380Y-73850000D02*
X156526380Y-74074000D01*
X156526380Y-74074000D02*
X156526380Y-75349000D01*
X156627380Y-75450000D02*
X157627380Y-75450000D01*
X160127380Y-102125000D02*
X153439880Y-102125000D01*
D25*
X159395822Y-75370000D02*
X158954760Y-75370000D01*
D23*
X145504760Y-110000000D02*
X144809760Y-109305000D01*
D24*
X170856380Y-89771000D02*
X169127380Y-91500000D01*
X176854140Y-89771000D02*
X170856380Y-89771000D01*
D25*
X163780000Y-69810000D02*
X165270000Y-69810000D01*
D23*
X143532380Y-109305000D02*
X143309760Y-109305000D01*
D24*
X156526380Y-75349000D02*
X156627380Y-75450000D01*
X169127380Y-91500000D02*
X169127380Y-92627380D01*
D23*
%TO.N,/RESET*%
X142254760Y-81750000D02*
X133877380Y-81750000D01*
X143504760Y-83000000D02*
X142254760Y-81750000D01*
X152322380Y-130025000D02*
X147254760Y-124957380D01*
X133877380Y-81750000D02*
X130627380Y-78500000D01*
X143504760Y-102750000D02*
X143504760Y-83000000D01*
X147254760Y-106500000D02*
X143504760Y-102750000D01*
X147254760Y-124957380D02*
X147254760Y-106500000D01*
D24*
%TO.N,Net-(D2-A)*%
X160127380Y-100250000D02*
X170501620Y-100250000D01*
X179291176Y-79508036D02*
X177069140Y-77286000D01*
X179291176Y-93463584D02*
X179291176Y-79508036D01*
X177903760Y-94851000D02*
X179291176Y-93463584D01*
X175900620Y-94851000D02*
X177903760Y-94851000D01*
X177069140Y-77286000D02*
X170578380Y-77286000D01*
X170578380Y-77286000D02*
X169802380Y-76510000D01*
X170501620Y-100250000D02*
X175900620Y-94851000D01*
%TO.N,Net-(D3-A)*%
X170203703Y-98651000D02*
X175226380Y-93628323D01*
X176854140Y-92311000D02*
X177929380Y-91235760D01*
X153377380Y-100312500D02*
X155038880Y-98651000D01*
X175226380Y-92985240D02*
X175900620Y-92311000D01*
X177929380Y-83226240D02*
X176854140Y-82151000D01*
X155038880Y-98651000D02*
X170203703Y-98651000D01*
X175900620Y-92311000D02*
X176854140Y-92311000D01*
X176854140Y-82151000D02*
X170703380Y-82151000D01*
X170703380Y-82151000D02*
X169802380Y-81250000D01*
X175226380Y-93628323D02*
X175226380Y-92985240D01*
X177929380Y-91235760D02*
X177929380Y-83226240D01*
%TO.N,Net-(D4-A)*%
X147377380Y-100062500D02*
X156290880Y-91149000D01*
X158605760Y-91149000D02*
X161004760Y-88750000D01*
X156290880Y-91149000D02*
X158605760Y-91149000D01*
X167254760Y-86500000D02*
X169802380Y-86500000D01*
D23*
%TO.N,VCC*%
X154127380Y-65250000D02*
X155127380Y-66250000D01*
X159004760Y-64250000D02*
X158104760Y-63350000D01*
D24*
X134754760Y-81000000D02*
X134754760Y-75250000D01*
D23*
X155127380Y-66250000D02*
X158004760Y-66250000D01*
D24*
X133254760Y-106750000D02*
X133254760Y-87000000D01*
X152254760Y-123500000D02*
X149504760Y-123500000D01*
X133254760Y-87000000D02*
X135754760Y-84500000D01*
X149504760Y-123500000D02*
X148754760Y-122750000D01*
X135754760Y-84500000D02*
X135754760Y-83000000D01*
D23*
X158104760Y-63350000D02*
X156227380Y-63350000D01*
X159004760Y-65250000D02*
X159004760Y-64250000D01*
X158004760Y-66250000D02*
X159004760Y-65250000D01*
%TO.N,Net-(J1-D+)*%
X154627380Y-64052000D02*
X154627380Y-63350000D01*
X157004760Y-65250000D02*
X155825380Y-65250000D01*
X155825380Y-65250000D02*
X154627380Y-64052000D01*
%TO.N,Net-(J1-ID)*%
X157453760Y-65801000D02*
X158254760Y-65000000D01*
D25*
X162784760Y-79790000D02*
X161834760Y-78840000D01*
D23*
X155576380Y-65801000D02*
X157453760Y-65801000D01*
D25*
X163424760Y-79790000D02*
X162784760Y-79790000D01*
D23*
X153827380Y-64052000D02*
X155576380Y-65801000D01*
X153827380Y-63350000D02*
X153827380Y-64052000D01*
D24*
%TO.N,/D12{slash}MISO*%
X146882281Y-76482719D02*
X147104703Y-76705141D01*
X147104703Y-76750000D02*
X148854703Y-78500000D01*
X148854703Y-78500000D02*
X150577380Y-78500000D01*
X147104703Y-76705141D02*
X147104703Y-76750000D01*
D23*
%TO.N,/D13{slash}SCK*%
X151137380Y-133750000D02*
X146504760Y-133750000D01*
X146147380Y-75827380D02*
X147004760Y-75827380D01*
X146504760Y-133750000D02*
X137004760Y-124250000D01*
X130254760Y-113250000D02*
X130254760Y-112500000D01*
X137004760Y-120000000D02*
X130254760Y-113250000D01*
X145830000Y-75510000D02*
X146147380Y-75827380D01*
X146442939Y-75325001D02*
X146014999Y-75325001D01*
X130627380Y-112127380D02*
X130627380Y-108980000D01*
X154862380Y-130025000D02*
X151137380Y-133750000D01*
X146014999Y-75325001D02*
X145830000Y-75510000D01*
X147004760Y-75827380D02*
X148227380Y-77050000D01*
X137004760Y-124250000D02*
X137004760Y-120000000D01*
X130254760Y-112500000D02*
X130627380Y-112127380D01*
X148227380Y-77050000D02*
X149127380Y-77050000D01*
%TO.N,/D11{slash}MOSI*%
X150953760Y-77176380D02*
X151377380Y-77600000D01*
X151377380Y-77600000D02*
X151377380Y-78500000D01*
X151276528Y-74949000D02*
X150953760Y-75271768D01*
X150953760Y-75271768D02*
X150953760Y-77176380D01*
X152453760Y-74949000D02*
X151276528Y-74949000D01*
X159504760Y-92500000D02*
X159504760Y-92250000D01*
X153004760Y-75500000D02*
X152453760Y-74949000D01*
X160504760Y-93500000D02*
X159504760Y-92500000D01*
%TO.N,/D8*%
X152677380Y-80500000D02*
X153777380Y-79400000D01*
X153777380Y-79400000D02*
X153777380Y-78500000D01*
X151504760Y-80500000D02*
X152677380Y-80500000D01*
%TO.N,/D4*%
X160504760Y-71795090D02*
X160640000Y-71659850D01*
X159953760Y-74478232D02*
X159703760Y-74228232D01*
X160004760Y-76425678D02*
X159953760Y-76374678D01*
X155805760Y-74228232D02*
X155805760Y-74159000D01*
X159703760Y-74228232D02*
X159703760Y-74199000D01*
X160004760Y-85250000D02*
X160004760Y-76425678D01*
X160640000Y-71659850D02*
X160640000Y-70135240D01*
X176377380Y-88620000D02*
X163374760Y-88620000D01*
X159464760Y-73685240D02*
X160504760Y-72645240D01*
X158805760Y-68301000D02*
X158055760Y-68301000D01*
X156164760Y-72812620D02*
X156727380Y-72250000D01*
X155805760Y-74159000D02*
X156164760Y-73800000D01*
X163374760Y-88620000D02*
X160004760Y-85250000D01*
X159703760Y-74199000D02*
X159464760Y-73960000D01*
X159953760Y-76374678D02*
X159953760Y-74478232D01*
X156164760Y-73800000D02*
X156164760Y-72812620D01*
X159464760Y-73960000D02*
X159464760Y-73685240D01*
X155852378Y-74560000D02*
X155852378Y-74274850D01*
X155852378Y-74274850D02*
X155805760Y-74228232D01*
X160640000Y-70135240D02*
X158805760Y-68301000D01*
X156727380Y-72250000D02*
X157627380Y-72250000D01*
X160504760Y-72645240D02*
X160504760Y-71795090D01*
%TO.N,/D3*%
X160254760Y-76250000D02*
X160254760Y-74000000D01*
X155254760Y-72922620D02*
X156727380Y-71450000D01*
X156727380Y-71450000D02*
X157627380Y-71450000D01*
X160754760Y-76750000D02*
X160254760Y-76250000D01*
X163504760Y-76750000D02*
X160754760Y-76750000D01*
X155254760Y-74000000D02*
X155254760Y-72922620D01*
X176377380Y-86080000D02*
X172834760Y-86080000D01*
X172834760Y-86080000D02*
X163504760Y-76750000D01*
D24*
%TO.N,/D0{slash}RX*%
X128874380Y-96154760D02*
X128874380Y-72871000D01*
X160254760Y-66250000D02*
X158877380Y-67627380D01*
X136877380Y-82101000D02*
X133731992Y-82101000D01*
X131778380Y-84054612D02*
X131778380Y-96756760D01*
X136877380Y-101277437D02*
X136877380Y-82101000D01*
X166754760Y-61000000D02*
X166754760Y-64750000D01*
D23*
X176377380Y-67750000D02*
X158877380Y-67750000D01*
D24*
X166754760Y-64750000D02*
X165254760Y-66250000D01*
X165254760Y-66250000D02*
X160254760Y-66250000D01*
X128874380Y-72871000D02*
X142970644Y-58774736D01*
X158877380Y-67627380D02*
X158877380Y-67750000D01*
X136877380Y-109305000D02*
X135903760Y-108331380D01*
D23*
X151084760Y-66820000D02*
X151963760Y-67699000D01*
X178877380Y-70250000D02*
X177377380Y-68750000D01*
X178877380Y-71500000D02*
X178877380Y-70250000D01*
D24*
X135903760Y-102251057D02*
X136877380Y-101277437D01*
D23*
X153053380Y-67699000D02*
X154577380Y-69223000D01*
X176377380Y-75920000D02*
X177207380Y-75920000D01*
X177377380Y-68750000D02*
X176377380Y-67750000D01*
D24*
X131778380Y-96756760D02*
X131104140Y-97431000D01*
D23*
X151963760Y-67699000D02*
X153053380Y-67699000D01*
D24*
X142970644Y-58774736D02*
X164480024Y-58774736D01*
X164504760Y-58750000D02*
X166754760Y-61000000D01*
D23*
X177207380Y-75920000D02*
X178877380Y-74250000D01*
D24*
X135903760Y-108331380D02*
X135903760Y-102251057D01*
D23*
X178877380Y-74250000D02*
X178877380Y-71500000D01*
D24*
X133731992Y-82101000D02*
X131778380Y-84054612D01*
X164480024Y-58774736D02*
X164504760Y-58750000D01*
X131104140Y-97431000D02*
X130150620Y-97431000D01*
D23*
X154577380Y-69223000D02*
X154577380Y-70000000D01*
D24*
X130150620Y-97431000D02*
X128874380Y-96154760D01*
D23*
%TO.N,/D7*%
X154577380Y-78322620D02*
X154504760Y-78250000D01*
X152254760Y-81250000D02*
X153101702Y-81250000D01*
X154577380Y-78500000D02*
X154577380Y-79277000D01*
X144805760Y-76502702D02*
X144805760Y-68521768D01*
X143703760Y-76252058D02*
X145754760Y-78303058D01*
X154577380Y-79277000D02*
X151078719Y-82775661D01*
X144482992Y-68199000D02*
X144026528Y-68199000D01*
X172504760Y-100112620D02*
X176377380Y-96240000D01*
X151078719Y-82775661D02*
X144805760Y-76502702D01*
X145754760Y-78303058D02*
X145754760Y-91000000D01*
X144805760Y-68521768D02*
X144482992Y-68199000D01*
X154577380Y-78500000D02*
X154577380Y-78322620D01*
X172504760Y-100250000D02*
X172504760Y-100112620D01*
X154577380Y-79774322D02*
X154577380Y-78500000D01*
X143703760Y-68521768D02*
X143703760Y-76252058D01*
X144026528Y-68199000D02*
X143703760Y-68521768D01*
X154577380Y-78500000D02*
X154577380Y-78750000D01*
X153101702Y-81250000D02*
X154577380Y-79774322D01*
%TO.N,/D6*%
X154504760Y-81250000D02*
X154504760Y-80272620D01*
X154504760Y-80272620D02*
X155377380Y-79400000D01*
X155377380Y-79400000D02*
X155377380Y-78500000D01*
%TO.N,/D2*%
X164831000Y-76551000D02*
X169151380Y-80871380D01*
X164001000Y-73921768D02*
X164001000Y-74378232D01*
X169151380Y-80871380D02*
X169151380Y-81717352D01*
X163720000Y-75440000D02*
X164453760Y-76173760D01*
X163720000Y-74659232D02*
X163720000Y-75440000D01*
X156177380Y-70827380D02*
X156177380Y-70000000D01*
X170031992Y-81976000D02*
X170557992Y-82502000D01*
X169410028Y-81976000D02*
X170031992Y-81976000D01*
X155504760Y-71500000D02*
X156177380Y-70827380D01*
X170782000Y-82502000D02*
X171820000Y-83540000D01*
X163720000Y-72715240D02*
X163720000Y-73640768D01*
X164776528Y-76551000D02*
X164831000Y-76551000D01*
X171820000Y-83540000D02*
X176377380Y-83540000D01*
X164001000Y-74378232D02*
X163720000Y-74659232D01*
X163720000Y-73640768D02*
X164001000Y-73921768D01*
X163090000Y-72085240D02*
X163720000Y-72715240D01*
X170557992Y-82502000D02*
X170782000Y-82502000D01*
X163090000Y-71249000D02*
X163090000Y-72085240D01*
X164453760Y-76173760D02*
X164453760Y-76228232D01*
X164453760Y-76228232D02*
X164776528Y-76551000D01*
X169151380Y-81717352D02*
X169410028Y-81976000D01*
%TO.N,/D9*%
X151504760Y-75500000D02*
X152977380Y-76972620D01*
X152977380Y-76972620D02*
X152977380Y-78500000D01*
%TO.N,/D1{slash}TX*%
X171277380Y-72000000D02*
X168027380Y-68750000D01*
X152904380Y-66750000D02*
X155377380Y-69223000D01*
X155377380Y-69223000D02*
X155377380Y-70000000D01*
X175257380Y-73380000D02*
X173877380Y-72000000D01*
X173877380Y-72000000D02*
X171277380Y-72000000D01*
X176377380Y-73380000D02*
X175257380Y-73380000D01*
X152004760Y-66750000D02*
X152904380Y-66750000D01*
X168027380Y-68750000D02*
X162004760Y-68750000D01*
D25*
%TO.N,/D10*%
X152177380Y-78500000D02*
X152177380Y-79917380D01*
X152177380Y-79917380D02*
X152174760Y-79920000D01*
D23*
%TO.N,/D5*%
X155504760Y-81000000D02*
X156177380Y-80327380D01*
X156177380Y-80327380D02*
X156177380Y-78500000D01*
D24*
%TO.N,/A0*%
X147004760Y-72000000D02*
X147254760Y-72250000D01*
X147254760Y-72250000D02*
X149127380Y-72250000D01*
%TO.N,/A1*%
X146805757Y-70351000D02*
X148754760Y-70351000D01*
X148754760Y-70351000D02*
X149127380Y-70723620D01*
X149127380Y-70723620D02*
X149127380Y-71450000D01*
X146754760Y-70300003D02*
X146805757Y-70351000D01*
D25*
%TO.N,/A6*%
X147840000Y-74220000D02*
X147840000Y-74849620D01*
X146554762Y-74499000D02*
X146554762Y-74618595D01*
X146554762Y-74499000D02*
X146833762Y-74220000D01*
X146554762Y-74499000D02*
X146554762Y-74345238D01*
X147840000Y-74849620D02*
X148440380Y-75450000D01*
X146833762Y-74220000D02*
X147840000Y-74220000D01*
X148440380Y-75450000D02*
X149127380Y-75450000D01*
D23*
%TO.N,/A3*%
X129526380Y-92639000D02*
X129526380Y-78043950D01*
X146754760Y-69500000D02*
X147305760Y-68949000D01*
X130171330Y-77399000D02*
X130745430Y-77399000D01*
X140004760Y-69500000D02*
X141754760Y-69500000D01*
X147305760Y-68949000D02*
X151226380Y-68949000D01*
X139754760Y-69750000D02*
X140004760Y-69500000D01*
X151377380Y-69100000D02*
X151377380Y-70000000D01*
X130627380Y-93740000D02*
X129526380Y-92639000D01*
X137004760Y-71139670D02*
X138365090Y-71139670D01*
X130745430Y-77399000D02*
X137004760Y-71139670D01*
X151226380Y-68949000D02*
X151377380Y-69100000D01*
X129526380Y-78043950D02*
X130171330Y-77399000D01*
X138365090Y-71139670D02*
X139754760Y-69750000D01*
%TO.N,/A2*%
X148754760Y-69750000D02*
X149004760Y-69750000D01*
X129225380Y-94878000D02*
X129225380Y-75804950D01*
X140482330Y-66750000D02*
X143254760Y-66750000D01*
X132373330Y-74859000D02*
X140482330Y-66750000D01*
X149004760Y-69750000D02*
X149254760Y-70000000D01*
X149254760Y-70000000D02*
X150577380Y-70000000D01*
X130627380Y-96280000D02*
X129225380Y-94878000D01*
X129225380Y-75804950D02*
X130171330Y-74859000D01*
X130171330Y-74859000D02*
X132373330Y-74859000D01*
%TO.N,/A4*%
X151407380Y-68330000D02*
X152177380Y-69100000D01*
X152177380Y-69100000D02*
X152177380Y-70000000D01*
X150424760Y-68330000D02*
X151407380Y-68330000D01*
%TO.N,/A7*%
X151894760Y-73860000D02*
X151084760Y-73050000D01*
X151084760Y-73050000D02*
X149127380Y-73050000D01*
%TO.N,/A5*%
X153354760Y-73410000D02*
X152977380Y-73032620D01*
X152977380Y-73032620D02*
X152977380Y-70000000D01*
%TO.N,Net-(U1-~{RESET}{slash}PC6)*%
X154314760Y-71051000D02*
X154051380Y-71051000D01*
X142504760Y-103750000D02*
X143532380Y-104777620D01*
X142504760Y-103000000D02*
X142504760Y-103750000D01*
X144504760Y-94872620D02*
X144504760Y-100250000D01*
X154314760Y-73485240D02*
X154314760Y-71051000D01*
X151839082Y-68000000D02*
X151662760Y-67823678D01*
X150377380Y-89000000D02*
X156877380Y-89000000D01*
X143532380Y-104777620D02*
X143532380Y-107655000D01*
X152554380Y-68000000D02*
X152088438Y-68000000D01*
X152088438Y-68000000D02*
X151839082Y-68000000D01*
X151479082Y-67640000D02*
X148114760Y-67640000D01*
X148114760Y-67640000D02*
X147754760Y-68000000D01*
X153840000Y-73960000D02*
X154314760Y-73485240D01*
X153777380Y-69223000D02*
X152554380Y-68000000D01*
X153777380Y-70000000D02*
X153777380Y-69223000D01*
X144254760Y-76377380D02*
X156877380Y-89000000D01*
X154051380Y-70274000D02*
X153777380Y-70000000D01*
X144254760Y-68750000D02*
X144254760Y-76377380D01*
X151662760Y-67823678D02*
X151479082Y-67640000D01*
X150377380Y-89000000D02*
X144504760Y-94872620D01*
X154153760Y-73960000D02*
X153840000Y-73960000D01*
X154051380Y-71051000D02*
X154051380Y-70274000D01*
D24*
%TO.N,/RX*%
X137599760Y-107655000D02*
X138754760Y-106500000D01*
X136877380Y-107655000D02*
X137599760Y-107655000D01*
D23*
%TO.N,/TX*%
X160805760Y-71919768D02*
X160805760Y-75449000D01*
X168326380Y-70699000D02*
X162026528Y-70699000D01*
X162026528Y-70699000D02*
X160805760Y-71919768D01*
X169627380Y-72000000D02*
X168326380Y-70699000D01*
D25*
%TO.N,Net-(U3-CBUS0)*%
X173526380Y-74436000D02*
X177433380Y-74436000D01*
X177433380Y-74436000D02*
X177433380Y-72278620D01*
X174514760Y-69360000D02*
X173184760Y-69360000D01*
X177433380Y-72278620D02*
X174514760Y-69360000D01*
X171452380Y-76510000D02*
X173526380Y-74436000D01*
D23*
%TO.N,Net-(U3-CBUS1)*%
X166202380Y-76000000D02*
X165004760Y-76000000D01*
X171452380Y-81250000D02*
X166202380Y-76000000D01*
%TD*%
M02*
