%TF.GenerationSoftware,KiCad,Pcbnew,9.0.0*%
%TF.CreationDate,2025-04-07T20:23:24+05:30*%
%TF.ProjectId,arduino nano clone,61726475-696e-46f2-906e-616e6f20636c,rev?*%
%TF.SameCoordinates,Original*%
%TF.FileFunction,Legend,Bot*%
%TF.FilePolarity,Positive*%
%FSLAX46Y46*%
G04 Gerber Fmt 4.6, Leading zero omitted, Abs format (unit mm)*
G04 Created by KiCad (PCBNEW 9.0.0) date 2025-04-07 20:23:24*
%MOMM*%
%LPD*%
G01*
G04 APERTURE LIST*
%ADD10C,0.150000*%
%ADD11C,0.100000*%
%ADD12C,0.120000*%
G04 APERTURE END LIST*
D10*
X150570713Y-63384819D02*
X150570713Y-64099104D01*
X150570713Y-64099104D02*
X150618332Y-64241961D01*
X150618332Y-64241961D02*
X150713570Y-64337200D01*
X150713570Y-64337200D02*
X150856427Y-64384819D01*
X150856427Y-64384819D02*
X150951665Y-64384819D01*
X149570713Y-64384819D02*
X150142141Y-64384819D01*
X149856427Y-64384819D02*
X149856427Y-63384819D01*
X149856427Y-63384819D02*
X149951665Y-63527676D01*
X149951665Y-63527676D02*
X150046903Y-63622914D01*
X150046903Y-63622914D02*
X150142141Y-63670533D01*
X138762199Y-108313333D02*
X138286008Y-107980000D01*
X138762199Y-107741905D02*
X137762199Y-107741905D01*
X137762199Y-107741905D02*
X137762199Y-108122857D01*
X137762199Y-108122857D02*
X137809818Y-108218095D01*
X137809818Y-108218095D02*
X137857437Y-108265714D01*
X137857437Y-108265714D02*
X137952675Y-108313333D01*
X137952675Y-108313333D02*
X138095532Y-108313333D01*
X138095532Y-108313333D02*
X138190770Y-108265714D01*
X138190770Y-108265714D02*
X138238389Y-108218095D01*
X138238389Y-108218095D02*
X138286008Y-108122857D01*
X138286008Y-108122857D02*
X138286008Y-107741905D01*
X137857437Y-108694286D02*
X137809818Y-108741905D01*
X137809818Y-108741905D02*
X137762199Y-108837143D01*
X137762199Y-108837143D02*
X137762199Y-109075238D01*
X137762199Y-109075238D02*
X137809818Y-109170476D01*
X137809818Y-109170476D02*
X137857437Y-109218095D01*
X137857437Y-109218095D02*
X137952675Y-109265714D01*
X137952675Y-109265714D02*
X138047913Y-109265714D01*
X138047913Y-109265714D02*
X138190770Y-109218095D01*
X138190770Y-109218095D02*
X138762199Y-108646667D01*
X138762199Y-108646667D02*
X138762199Y-109265714D01*
X170794046Y-80274819D02*
X171127379Y-79798628D01*
X171365474Y-80274819D02*
X171365474Y-79274819D01*
X171365474Y-79274819D02*
X170984522Y-79274819D01*
X170984522Y-79274819D02*
X170889284Y-79322438D01*
X170889284Y-79322438D02*
X170841665Y-79370057D01*
X170841665Y-79370057D02*
X170794046Y-79465295D01*
X170794046Y-79465295D02*
X170794046Y-79608152D01*
X170794046Y-79608152D02*
X170841665Y-79703390D01*
X170841665Y-79703390D02*
X170889284Y-79751009D01*
X170889284Y-79751009D02*
X170984522Y-79798628D01*
X170984522Y-79798628D02*
X171365474Y-79798628D01*
X169889284Y-79274819D02*
X170365474Y-79274819D01*
X170365474Y-79274819D02*
X170413093Y-79751009D01*
X170413093Y-79751009D02*
X170365474Y-79703390D01*
X170365474Y-79703390D02*
X170270236Y-79655771D01*
X170270236Y-79655771D02*
X170032141Y-79655771D01*
X170032141Y-79655771D02*
X169936903Y-79703390D01*
X169936903Y-79703390D02*
X169889284Y-79751009D01*
X169889284Y-79751009D02*
X169841665Y-79846247D01*
X169841665Y-79846247D02*
X169841665Y-80084342D01*
X169841665Y-80084342D02*
X169889284Y-80179580D01*
X169889284Y-80179580D02*
X169936903Y-80227200D01*
X169936903Y-80227200D02*
X170032141Y-80274819D01*
X170032141Y-80274819D02*
X170270236Y-80274819D01*
X170270236Y-80274819D02*
X170365474Y-80227200D01*
X170365474Y-80227200D02*
X170413093Y-80179580D01*
X155482199Y-100511905D02*
X154482199Y-100511905D01*
X154482199Y-100511905D02*
X154482199Y-100750000D01*
X154482199Y-100750000D02*
X154529818Y-100892857D01*
X154529818Y-100892857D02*
X154625056Y-100988095D01*
X154625056Y-100988095D02*
X154720294Y-101035714D01*
X154720294Y-101035714D02*
X154910770Y-101083333D01*
X154910770Y-101083333D02*
X155053627Y-101083333D01*
X155053627Y-101083333D02*
X155244103Y-101035714D01*
X155244103Y-101035714D02*
X155339341Y-100988095D01*
X155339341Y-100988095D02*
X155434580Y-100892857D01*
X155434580Y-100892857D02*
X155482199Y-100750000D01*
X155482199Y-100750000D02*
X155482199Y-100511905D01*
X154482199Y-101416667D02*
X154482199Y-102035714D01*
X154482199Y-102035714D02*
X154863151Y-101702381D01*
X154863151Y-101702381D02*
X154863151Y-101845238D01*
X154863151Y-101845238D02*
X154910770Y-101940476D01*
X154910770Y-101940476D02*
X154958389Y-101988095D01*
X154958389Y-101988095D02*
X155053627Y-102035714D01*
X155053627Y-102035714D02*
X155291722Y-102035714D01*
X155291722Y-102035714D02*
X155386960Y-101988095D01*
X155386960Y-101988095D02*
X155434580Y-101940476D01*
X155434580Y-101940476D02*
X155482199Y-101845238D01*
X155482199Y-101845238D02*
X155482199Y-101559524D01*
X155482199Y-101559524D02*
X155434580Y-101464286D01*
X155434580Y-101464286D02*
X155386960Y-101416667D01*
X159187199Y-128421666D02*
X159901484Y-128421666D01*
X159901484Y-128421666D02*
X160044341Y-128374047D01*
X160044341Y-128374047D02*
X160139580Y-128278809D01*
X160139580Y-128278809D02*
X160187199Y-128135952D01*
X160187199Y-128135952D02*
X160187199Y-128040714D01*
X159282437Y-128850238D02*
X159234818Y-128897857D01*
X159234818Y-128897857D02*
X159187199Y-128993095D01*
X159187199Y-128993095D02*
X159187199Y-129231190D01*
X159187199Y-129231190D02*
X159234818Y-129326428D01*
X159234818Y-129326428D02*
X159282437Y-129374047D01*
X159282437Y-129374047D02*
X159377675Y-129421666D01*
X159377675Y-129421666D02*
X159472913Y-129421666D01*
X159472913Y-129421666D02*
X159615770Y-129374047D01*
X159615770Y-129374047D02*
X160187199Y-128802619D01*
X160187199Y-128802619D02*
X160187199Y-129421666D01*
X145417199Y-108313333D02*
X144941008Y-107980000D01*
X145417199Y-107741905D02*
X144417199Y-107741905D01*
X144417199Y-107741905D02*
X144417199Y-108122857D01*
X144417199Y-108122857D02*
X144464818Y-108218095D01*
X144464818Y-108218095D02*
X144512437Y-108265714D01*
X144512437Y-108265714D02*
X144607675Y-108313333D01*
X144607675Y-108313333D02*
X144750532Y-108313333D01*
X144750532Y-108313333D02*
X144845770Y-108265714D01*
X144845770Y-108265714D02*
X144893389Y-108218095D01*
X144893389Y-108218095D02*
X144941008Y-108122857D01*
X144941008Y-108122857D02*
X144941008Y-107741905D01*
X145417199Y-109265714D02*
X145417199Y-108694286D01*
X145417199Y-108980000D02*
X144417199Y-108980000D01*
X144417199Y-108980000D02*
X144560056Y-108884762D01*
X144560056Y-108884762D02*
X144655294Y-108789524D01*
X144655294Y-108789524D02*
X144702913Y-108694286D01*
X170619046Y-71024819D02*
X170952379Y-70548628D01*
X171190474Y-71024819D02*
X171190474Y-70024819D01*
X171190474Y-70024819D02*
X170809522Y-70024819D01*
X170809522Y-70024819D02*
X170714284Y-70072438D01*
X170714284Y-70072438D02*
X170666665Y-70120057D01*
X170666665Y-70120057D02*
X170619046Y-70215295D01*
X170619046Y-70215295D02*
X170619046Y-70358152D01*
X170619046Y-70358152D02*
X170666665Y-70453390D01*
X170666665Y-70453390D02*
X170714284Y-70501009D01*
X170714284Y-70501009D02*
X170809522Y-70548628D01*
X170809522Y-70548628D02*
X171190474Y-70548628D01*
X170285712Y-70024819D02*
X169666665Y-70024819D01*
X169666665Y-70024819D02*
X169999998Y-70405771D01*
X169999998Y-70405771D02*
X169857141Y-70405771D01*
X169857141Y-70405771D02*
X169761903Y-70453390D01*
X169761903Y-70453390D02*
X169714284Y-70501009D01*
X169714284Y-70501009D02*
X169666665Y-70596247D01*
X169666665Y-70596247D02*
X169666665Y-70834342D01*
X169666665Y-70834342D02*
X169714284Y-70929580D01*
X169714284Y-70929580D02*
X169761903Y-70977200D01*
X169761903Y-70977200D02*
X169857141Y-71024819D01*
X169857141Y-71024819D02*
X170142855Y-71024819D01*
X170142855Y-71024819D02*
X170238093Y-70977200D01*
X170238093Y-70977200D02*
X170285712Y-70929580D01*
X141262199Y-73358333D02*
X141262199Y-72786905D01*
X141262199Y-73072619D02*
X140262199Y-73072619D01*
X140262199Y-73072619D02*
X140405056Y-72977381D01*
X140405056Y-72977381D02*
X140500294Y-72882143D01*
X140500294Y-72882143D02*
X140547913Y-72786905D01*
X140262199Y-74215476D02*
X140262199Y-74025000D01*
X140262199Y-74025000D02*
X140309818Y-73929762D01*
X140309818Y-73929762D02*
X140357437Y-73882143D01*
X140357437Y-73882143D02*
X140500294Y-73786905D01*
X140500294Y-73786905D02*
X140690770Y-73739286D01*
X140690770Y-73739286D02*
X141071722Y-73739286D01*
X141071722Y-73739286D02*
X141166960Y-73786905D01*
X141166960Y-73786905D02*
X141214580Y-73834524D01*
X141214580Y-73834524D02*
X141262199Y-73929762D01*
X141262199Y-73929762D02*
X141262199Y-74120238D01*
X141262199Y-74120238D02*
X141214580Y-74215476D01*
X141214580Y-74215476D02*
X141166960Y-74263095D01*
X141166960Y-74263095D02*
X141071722Y-74310714D01*
X141071722Y-74310714D02*
X140833627Y-74310714D01*
X140833627Y-74310714D02*
X140738389Y-74263095D01*
X140738389Y-74263095D02*
X140690770Y-74215476D01*
X140690770Y-74215476D02*
X140643151Y-74120238D01*
X140643151Y-74120238D02*
X140643151Y-73929762D01*
X140643151Y-73929762D02*
X140690770Y-73834524D01*
X140690770Y-73834524D02*
X140738389Y-73786905D01*
X140738389Y-73786905D02*
X140833627Y-73739286D01*
X141262199Y-74739286D02*
X140262199Y-74739286D01*
X140262199Y-74739286D02*
X140976484Y-75072619D01*
X140976484Y-75072619D02*
X140262199Y-75405952D01*
X140262199Y-75405952D02*
X141262199Y-75405952D01*
X141262199Y-75882143D02*
X140262199Y-75882143D01*
X140738389Y-75882143D02*
X140738389Y-76453571D01*
X141262199Y-76453571D02*
X140262199Y-76453571D01*
X140595532Y-76834524D02*
X140595532Y-77358333D01*
X140595532Y-77358333D02*
X141262199Y-76834524D01*
X141262199Y-76834524D02*
X141262199Y-77358333D01*
X141262199Y-78263095D02*
X141262199Y-77691667D01*
X141262199Y-77977381D02*
X140262199Y-77977381D01*
X140262199Y-77977381D02*
X140405056Y-77882143D01*
X140405056Y-77882143D02*
X140500294Y-77786905D01*
X140500294Y-77786905D02*
X140547913Y-77691667D01*
X154139284Y-67654819D02*
X154139284Y-68464342D01*
X154139284Y-68464342D02*
X154091665Y-68559580D01*
X154091665Y-68559580D02*
X154044046Y-68607200D01*
X154044046Y-68607200D02*
X153948808Y-68654819D01*
X153948808Y-68654819D02*
X153758332Y-68654819D01*
X153758332Y-68654819D02*
X153663094Y-68607200D01*
X153663094Y-68607200D02*
X153615475Y-68559580D01*
X153615475Y-68559580D02*
X153567856Y-68464342D01*
X153567856Y-68464342D02*
X153567856Y-67654819D01*
X152567856Y-68654819D02*
X153139284Y-68654819D01*
X152853570Y-68654819D02*
X152853570Y-67654819D01*
X152853570Y-67654819D02*
X152948808Y-67797676D01*
X152948808Y-67797676D02*
X153044046Y-67892914D01*
X153044046Y-67892914D02*
X153139284Y-67940533D01*
X162232199Y-100449405D02*
X161232199Y-100449405D01*
X161232199Y-100449405D02*
X161232199Y-100687500D01*
X161232199Y-100687500D02*
X161279818Y-100830357D01*
X161279818Y-100830357D02*
X161375056Y-100925595D01*
X161375056Y-100925595D02*
X161470294Y-100973214D01*
X161470294Y-100973214D02*
X161660770Y-101020833D01*
X161660770Y-101020833D02*
X161803627Y-101020833D01*
X161803627Y-101020833D02*
X161994103Y-100973214D01*
X161994103Y-100973214D02*
X162089341Y-100925595D01*
X162089341Y-100925595D02*
X162184580Y-100830357D01*
X162184580Y-100830357D02*
X162232199Y-100687500D01*
X162232199Y-100687500D02*
X162232199Y-100449405D01*
X161327437Y-101401786D02*
X161279818Y-101449405D01*
X161279818Y-101449405D02*
X161232199Y-101544643D01*
X161232199Y-101544643D02*
X161232199Y-101782738D01*
X161232199Y-101782738D02*
X161279818Y-101877976D01*
X161279818Y-101877976D02*
X161327437Y-101925595D01*
X161327437Y-101925595D02*
X161422675Y-101973214D01*
X161422675Y-101973214D02*
X161517913Y-101973214D01*
X161517913Y-101973214D02*
X161660770Y-101925595D01*
X161660770Y-101925595D02*
X162232199Y-101354167D01*
X162232199Y-101354167D02*
X162232199Y-101973214D01*
X170794046Y-75534819D02*
X171127379Y-75058628D01*
X171365474Y-75534819D02*
X171365474Y-74534819D01*
X171365474Y-74534819D02*
X170984522Y-74534819D01*
X170984522Y-74534819D02*
X170889284Y-74582438D01*
X170889284Y-74582438D02*
X170841665Y-74630057D01*
X170841665Y-74630057D02*
X170794046Y-74725295D01*
X170794046Y-74725295D02*
X170794046Y-74868152D01*
X170794046Y-74868152D02*
X170841665Y-74963390D01*
X170841665Y-74963390D02*
X170889284Y-75011009D01*
X170889284Y-75011009D02*
X170984522Y-75058628D01*
X170984522Y-75058628D02*
X171365474Y-75058628D01*
X169936903Y-74868152D02*
X169936903Y-75534819D01*
X170174998Y-74487200D02*
X170413093Y-75201485D01*
X170413093Y-75201485D02*
X169794046Y-75201485D01*
X170794046Y-85524819D02*
X171127379Y-85048628D01*
X171365474Y-85524819D02*
X171365474Y-84524819D01*
X171365474Y-84524819D02*
X170984522Y-84524819D01*
X170984522Y-84524819D02*
X170889284Y-84572438D01*
X170889284Y-84572438D02*
X170841665Y-84620057D01*
X170841665Y-84620057D02*
X170794046Y-84715295D01*
X170794046Y-84715295D02*
X170794046Y-84858152D01*
X170794046Y-84858152D02*
X170841665Y-84953390D01*
X170841665Y-84953390D02*
X170889284Y-85001009D01*
X170889284Y-85001009D02*
X170984522Y-85048628D01*
X170984522Y-85048628D02*
X171365474Y-85048628D01*
X169936903Y-84524819D02*
X170127379Y-84524819D01*
X170127379Y-84524819D02*
X170222617Y-84572438D01*
X170222617Y-84572438D02*
X170270236Y-84620057D01*
X170270236Y-84620057D02*
X170365474Y-84762914D01*
X170365474Y-84762914D02*
X170413093Y-84953390D01*
X170413093Y-84953390D02*
X170413093Y-85334342D01*
X170413093Y-85334342D02*
X170365474Y-85429580D01*
X170365474Y-85429580D02*
X170317855Y-85477200D01*
X170317855Y-85477200D02*
X170222617Y-85524819D01*
X170222617Y-85524819D02*
X170032141Y-85524819D01*
X170032141Y-85524819D02*
X169936903Y-85477200D01*
X169936903Y-85477200D02*
X169889284Y-85429580D01*
X169889284Y-85429580D02*
X169841665Y-85334342D01*
X169841665Y-85334342D02*
X169841665Y-85096247D01*
X169841665Y-85096247D02*
X169889284Y-85001009D01*
X169889284Y-85001009D02*
X169936903Y-84953390D01*
X169936903Y-84953390D02*
X170032141Y-84905771D01*
X170032141Y-84905771D02*
X170222617Y-84905771D01*
X170222617Y-84905771D02*
X170317855Y-84953390D01*
X170317855Y-84953390D02*
X170365474Y-85001009D01*
X170365474Y-85001009D02*
X170413093Y-85096247D01*
X167865474Y-89454819D02*
X167865474Y-88454819D01*
X167865474Y-88454819D02*
X167627379Y-88454819D01*
X167627379Y-88454819D02*
X167484522Y-88502438D01*
X167484522Y-88502438D02*
X167389284Y-88597676D01*
X167389284Y-88597676D02*
X167341665Y-88692914D01*
X167341665Y-88692914D02*
X167294046Y-88883390D01*
X167294046Y-88883390D02*
X167294046Y-89026247D01*
X167294046Y-89026247D02*
X167341665Y-89216723D01*
X167341665Y-89216723D02*
X167389284Y-89311961D01*
X167389284Y-89311961D02*
X167484522Y-89407200D01*
X167484522Y-89407200D02*
X167627379Y-89454819D01*
X167627379Y-89454819D02*
X167865474Y-89454819D01*
X166341665Y-89454819D02*
X166913093Y-89454819D01*
X166627379Y-89454819D02*
X166627379Y-88454819D01*
X166627379Y-88454819D02*
X166722617Y-88597676D01*
X166722617Y-88597676D02*
X166817855Y-88692914D01*
X166817855Y-88692914D02*
X166913093Y-88740533D01*
X154960712Y-87407200D02*
X154817855Y-87454819D01*
X154817855Y-87454819D02*
X154579760Y-87454819D01*
X154579760Y-87454819D02*
X154484522Y-87407200D01*
X154484522Y-87407200D02*
X154436903Y-87359580D01*
X154436903Y-87359580D02*
X154389284Y-87264342D01*
X154389284Y-87264342D02*
X154389284Y-87169104D01*
X154389284Y-87169104D02*
X154436903Y-87073866D01*
X154436903Y-87073866D02*
X154484522Y-87026247D01*
X154484522Y-87026247D02*
X154579760Y-86978628D01*
X154579760Y-86978628D02*
X154770236Y-86931009D01*
X154770236Y-86931009D02*
X154865474Y-86883390D01*
X154865474Y-86883390D02*
X154913093Y-86835771D01*
X154913093Y-86835771D02*
X154960712Y-86740533D01*
X154960712Y-86740533D02*
X154960712Y-86645295D01*
X154960712Y-86645295D02*
X154913093Y-86550057D01*
X154913093Y-86550057D02*
X154865474Y-86502438D01*
X154865474Y-86502438D02*
X154770236Y-86454819D01*
X154770236Y-86454819D02*
X154532141Y-86454819D01*
X154532141Y-86454819D02*
X154389284Y-86502438D01*
X154055950Y-86454819D02*
X153817855Y-87454819D01*
X153817855Y-87454819D02*
X153627379Y-86740533D01*
X153627379Y-86740533D02*
X153436903Y-87454819D01*
X153436903Y-87454819D02*
X153198808Y-86454819D01*
X152294046Y-87454819D02*
X152865474Y-87454819D01*
X152579760Y-87454819D02*
X152579760Y-86454819D01*
X152579760Y-86454819D02*
X152674998Y-86597676D01*
X152674998Y-86597676D02*
X152770236Y-86692914D01*
X152770236Y-86692914D02*
X152865474Y-86740533D01*
X149684819Y-100261905D02*
X148684819Y-100261905D01*
X148684819Y-100261905D02*
X148684819Y-100500000D01*
X148684819Y-100500000D02*
X148732438Y-100642857D01*
X148732438Y-100642857D02*
X148827676Y-100738095D01*
X148827676Y-100738095D02*
X148922914Y-100785714D01*
X148922914Y-100785714D02*
X149113390Y-100833333D01*
X149113390Y-100833333D02*
X149256247Y-100833333D01*
X149256247Y-100833333D02*
X149446723Y-100785714D01*
X149446723Y-100785714D02*
X149541961Y-100738095D01*
X149541961Y-100738095D02*
X149637200Y-100642857D01*
X149637200Y-100642857D02*
X149684819Y-100500000D01*
X149684819Y-100500000D02*
X149684819Y-100261905D01*
X149018152Y-101690476D02*
X149684819Y-101690476D01*
X148637200Y-101452381D02*
X149351485Y-101214286D01*
X149351485Y-101214286D02*
X149351485Y-101833333D01*
D11*
%TO.C,J1*%
X150677380Y-58800000D02*
X158577380Y-58800000D01*
X150677380Y-61100000D02*
X150677380Y-58800000D01*
X152562904Y-62888539D02*
X151562904Y-62888539D01*
X156677380Y-62900000D02*
X157677380Y-62900000D01*
X156677380Y-63950000D02*
X156677380Y-62900000D01*
X158577380Y-58800000D02*
X158577380Y-61100000D01*
D12*
%TO.C,R2*%
X136354880Y-108717258D02*
X136354880Y-108242742D01*
X137399880Y-108717258D02*
X137399880Y-108242742D01*
%TO.C,R5*%
X170864638Y-80727500D02*
X170390122Y-80727500D01*
X170864638Y-81772500D02*
X170390122Y-81772500D01*
%TO.C,D3*%
X152417380Y-102935000D02*
X152417380Y-100250000D01*
X154337380Y-100250000D02*
X154337380Y-102935000D01*
X154337380Y-102935000D02*
X152417380Y-102935000D01*
%TO.C,J2*%
X150992380Y-131355000D02*
X150992380Y-126155000D01*
X156132380Y-128755000D02*
X158732380Y-128755000D01*
X156132380Y-131355000D02*
X150992380Y-131355000D01*
X156132380Y-131355000D02*
X156132380Y-128755000D01*
X157402380Y-131355000D02*
X158732380Y-131355000D01*
X158732380Y-126155000D02*
X150992380Y-126155000D01*
X158732380Y-128755000D02*
X158732380Y-126155000D01*
X158732380Y-131355000D02*
X158732380Y-130025000D01*
%TO.C,R1*%
X143009880Y-108717258D02*
X143009880Y-108242742D01*
X144054880Y-108717258D02*
X144054880Y-108242742D01*
%TO.C,R3*%
X170689638Y-71477500D02*
X170215122Y-71477500D01*
X170689638Y-72522500D02*
X170215122Y-72522500D01*
%TO.C,16MHz1*%
X138867380Y-75665580D02*
X138867380Y-75384420D01*
X139887380Y-75665580D02*
X139887380Y-75384420D01*
D10*
%TO.C,U1*%
X149752380Y-70625000D02*
X149752380Y-70950000D01*
X149752380Y-70625000D02*
X150077380Y-70625000D01*
X149752380Y-77875000D02*
X149752380Y-77550000D01*
X149752380Y-77875000D02*
X150077380Y-77875000D01*
X157002380Y-70625000D02*
X156677380Y-70625000D01*
X157002380Y-70625000D02*
X157002380Y-70850000D01*
X157002380Y-77875000D02*
X156677380Y-77875000D01*
X157002380Y-77875000D02*
X157002380Y-77550000D01*
D12*
X157767380Y-70910000D02*
X157427380Y-70440000D01*
X158107380Y-70440000D01*
X157767380Y-70910000D01*
G36*
X157767380Y-70910000D02*
G01*
X157427380Y-70440000D01*
X158107380Y-70440000D01*
X157767380Y-70910000D01*
G37*
%TO.C,D2*%
X159167380Y-102872500D02*
X159167380Y-100187500D01*
X161087380Y-100187500D02*
X161087380Y-102872500D01*
X161087380Y-102872500D02*
X159167380Y-102872500D01*
%TO.C,R4*%
X170864638Y-75987500D02*
X170390122Y-75987500D01*
X170864638Y-77032500D02*
X170390122Y-77032500D01*
%TO.C,R6*%
X170864638Y-85977500D02*
X170390122Y-85977500D01*
X170864638Y-87022500D02*
X170390122Y-87022500D01*
%TO.C,D1*%
X170637380Y-89850000D02*
X165127380Y-89850000D01*
X170637380Y-89850000D02*
X170637380Y-93150000D01*
X170637380Y-93150000D02*
X165127380Y-93150000D01*
%TO.C,SW1*%
X150127380Y-92000000D02*
X150127380Y-90500000D01*
X151377380Y-88000000D02*
X155877380Y-88000000D01*
X155877380Y-94500000D02*
X151377380Y-94500000D01*
X157127380Y-90500000D02*
X157127380Y-92000000D01*
%TO.C,D4*%
X146417380Y-102685000D02*
X146417380Y-100000000D01*
X148337380Y-100000000D02*
X148337380Y-102685000D01*
X148337380Y-102685000D02*
X146417380Y-102685000D01*
%TD*%
M02*
