%TF.GenerationSoftware,KiCad,Pcbnew,9.0.0*%
%TF.CreationDate,2025-04-07T20:23:24+05:30*%
%TF.ProjectId,arduino nano clone,61726475-696e-46f2-906e-616e6f20636c,rev?*%
%TF.SameCoordinates,Original*%
%TF.FileFunction,Copper,L7,Inr*%
%TF.FilePolarity,Positive*%
%FSLAX46Y46*%
G04 Gerber Fmt 4.6, Leading zero omitted, Abs format (unit mm)*
G04 Created by KiCad (PCBNEW 9.0.0) date 2025-04-07 20:23:24*
%MOMM*%
%LPD*%
G01*
G04 APERTURE LIST*
%TA.AperFunction,ComponentPad*%
%ADD10R,1.700000X1.700000*%
%TD*%
%TA.AperFunction,ComponentPad*%
%ADD11O,1.700000X1.700000*%
%TD*%
%TA.AperFunction,ComponentPad*%
%ADD12C,2.000000*%
%TD*%
%TA.AperFunction,ViaPad*%
%ADD13C,0.600000*%
%TD*%
%TA.AperFunction,Conductor*%
%ADD14C,0.010000*%
%TD*%
%TA.AperFunction,Conductor*%
%ADD15C,0.200000*%
%TD*%
%TA.AperFunction,Conductor*%
%ADD16C,0.100000*%
%TD*%
G04 APERTURE END LIST*
D10*
%TO.N,/D1{slash}TX*%
%TO.C,J3*%
X176377380Y-73380000D03*
D11*
%TO.N,/D0{slash}RX*%
X176377380Y-75920000D03*
%TO.N,/RESET*%
X176377380Y-78460000D03*
%TO.N,GND*%
X176377380Y-81000000D03*
%TO.N,/D2*%
X176377380Y-83540000D03*
%TO.N,/D3*%
X176377380Y-86080000D03*
%TO.N,/D4*%
X176377380Y-88620000D03*
%TO.N,/D5*%
X176377380Y-91160000D03*
%TO.N,/D6*%
X176377380Y-93700000D03*
%TO.N,/D7*%
X176377380Y-96240000D03*
%TO.N,/D8*%
X176377380Y-98780000D03*
%TO.N,/D9*%
X176377380Y-101320000D03*
%TO.N,/D10*%
X176377380Y-103860000D03*
%TO.N,/D11{slash}MOSI*%
X176377380Y-106400000D03*
%TO.N,/D12{slash}MISO*%
X176377380Y-108940000D03*
%TD*%
D10*
%TO.N,VCC*%
%TO.C,J4*%
X130627380Y-73420000D03*
D11*
%TO.N,GND*%
X130627380Y-75960000D03*
%TO.N,/RESET*%
X130627380Y-78500000D03*
%TO.N,+5V*%
X130627380Y-81040000D03*
%TO.N,/A7*%
X130627380Y-83580000D03*
%TO.N,/A6*%
X130627380Y-86120000D03*
%TO.N,/A5*%
X130627380Y-88660000D03*
%TO.N,/A4*%
X130627380Y-91200000D03*
%TO.N,/A3*%
X130627380Y-93740000D03*
%TO.N,/A2*%
X130627380Y-96280000D03*
%TO.N,/A1*%
X130627380Y-98820000D03*
%TO.N,/A0*%
X130627380Y-101360000D03*
%TO.N,/AREF*%
X130627380Y-103900000D03*
%TO.N,+3V3*%
X130627380Y-106440000D03*
%TO.N,/D13{slash}SCK*%
X130627380Y-108980000D03*
%TD*%
D10*
%TO.N,/D12{slash}MISO*%
%TO.C,J2*%
X157402380Y-130025000D03*
D11*
%TO.N,+5V*%
X157402380Y-127485000D03*
%TO.N,/D13{slash}SCK*%
X154862380Y-130025000D03*
%TO.N,/D11{slash}MOSI*%
X154862380Y-127485000D03*
%TO.N,/RESET*%
X152322380Y-130025000D03*
%TO.N,GND*%
X152322380Y-127485000D03*
%TD*%
D12*
%TO.N,Net-(U1-~{RESET}{slash}PC6)*%
%TO.C,SW1*%
X156877380Y-89000000D03*
X150377380Y-89000000D03*
%TO.N,GND*%
X156877380Y-93500000D03*
X150377380Y-93500000D03*
%TD*%
D13*
%TO.N,*%
X162450000Y-76200000D03*
X136560000Y-78940000D03*
X163450000Y-74150000D03*
X141450000Y-79000000D03*
%TO.N,GND*%
X150754760Y-105500000D03*
X145504760Y-98250000D03*
X159480000Y-72190000D03*
X158254760Y-83500000D03*
X163379178Y-75876996D03*
X170254760Y-97750000D03*
X145600000Y-76440000D03*
%TO.N,/AREF*%
X155852378Y-76370000D03*
X163504760Y-82250000D03*
%TO.N,Net-(U1-XTAL2{slash}PB7)*%
X155004760Y-76500000D03*
X136754760Y-74500000D03*
%TO.N,Net-(U1-XTAL1{slash}PB6)*%
X140254760Y-72000000D03*
X161504760Y-77750000D03*
X159254760Y-78500000D03*
%TO.N,+5V*%
X137960000Y-83200000D03*
X136504760Y-102500000D03*
X147310000Y-74840000D03*
X165270000Y-69810000D03*
X159399791Y-75366031D03*
X153494760Y-76480000D03*
X149004760Y-110000000D03*
X164754760Y-97000000D03*
X146254760Y-110000000D03*
X163780000Y-69810000D03*
%TO.N,Net-(U3-DTR)*%
X141754760Y-68250000D03*
X145754760Y-74250000D03*
%TO.N,Net-(D4-A)*%
X167254760Y-86500000D03*
X163254760Y-86500000D03*
X161004760Y-88750000D03*
%TO.N,VCC*%
X148754760Y-122750000D03*
X134754760Y-75250000D03*
X133254760Y-106750000D03*
X134754760Y-81000000D03*
X154127380Y-65250000D03*
X152254760Y-123500000D03*
X135754760Y-83000000D03*
%TO.N,Net-(J1-D+)*%
X162004760Y-83500000D03*
X157004760Y-65250000D03*
%TO.N,Net-(J1-ID)*%
X163424760Y-79790000D03*
X154354760Y-82050000D03*
X159014760Y-81750000D03*
X161834760Y-78840000D03*
X158254760Y-65000000D03*
X163374760Y-83280000D03*
%TO.N,/D12{slash}MISO*%
X146882281Y-76482719D03*
%TO.N,/D13{slash}SCK*%
X146442939Y-75325001D03*
%TO.N,/D11{slash}MOSI*%
X159504760Y-92250000D03*
X167754760Y-106500000D03*
X160504760Y-93500000D03*
X159754760Y-96500000D03*
X147004760Y-84250000D03*
X153004760Y-75500000D03*
%TO.N,/D8*%
X151504760Y-80500000D03*
%TO.N,/D4*%
X155852378Y-74560000D03*
X158055760Y-68301000D03*
%TO.N,/D3*%
X160254760Y-74000000D03*
X155254760Y-74000000D03*
%TO.N,/D0{slash}RX*%
X151084760Y-66820000D03*
X158877380Y-67750000D03*
%TO.N,/D7*%
X145754760Y-91000000D03*
X172504760Y-100250000D03*
X152254760Y-81250000D03*
%TO.N,/D6*%
X154504760Y-81250000D03*
%TO.N,/D2*%
X155504760Y-71500000D03*
X163090000Y-71249000D03*
%TO.N,/D9*%
X151504760Y-75500000D03*
%TO.N,/D1{slash}TX*%
X152004760Y-66750000D03*
X162004760Y-68750000D03*
%TO.N,/D10*%
X152174760Y-79920000D03*
X146414760Y-81840000D03*
X144204760Y-79260000D03*
%TO.N,/D5*%
X155504760Y-81000000D03*
%TO.N,/A0*%
X147004760Y-72000000D03*
%TO.N,/A1*%
X146754760Y-70300003D03*
%TO.N,/A6*%
X146554762Y-74499000D03*
%TO.N,/A3*%
X141754760Y-69500000D03*
X146754760Y-69500000D03*
%TO.N,/A2*%
X148754760Y-69750000D03*
X143254760Y-66750000D03*
%TO.N,/A4*%
X150424760Y-68330000D03*
%TO.N,/A7*%
X152134760Y-77200000D03*
X151894760Y-73860000D03*
%TO.N,/A5*%
X153354760Y-73410000D03*
%TO.N,Net-(U1-~{RESET}{slash}PC6)*%
X144504760Y-100250000D03*
X154153760Y-73960000D03*
X147754760Y-68000000D03*
X144254760Y-68750000D03*
X142504760Y-103000000D03*
%TO.N,/RX*%
X142004760Y-70750000D03*
X138754760Y-106500000D03*
%TO.N,/TX*%
X143254760Y-77250000D03*
X160805760Y-75449000D03*
%TO.N,Net-(U3-CBUS0)*%
X173184760Y-69360000D03*
%TO.N,Net-(U3-CBUS1)*%
X165004760Y-76000000D03*
%TD*%
D14*
%TO.N,*%
X162868760Y-83351593D02*
X162868760Y-77311240D01*
X141450000Y-79000000D02*
X145030000Y-82580000D01*
X162214353Y-84006000D02*
X162868760Y-83351593D01*
X160516000Y-84006000D02*
X162214353Y-84006000D01*
X162868760Y-77311240D02*
X164240000Y-75940000D01*
X164070000Y-74750000D02*
X163470000Y-74150000D01*
X163470000Y-74150000D02*
X163450000Y-74150000D01*
X159090000Y-82580000D02*
X159740000Y-83230000D01*
X164240000Y-74920000D02*
X164070000Y-74750000D01*
X145030000Y-82580000D02*
X159090000Y-82580000D01*
X159740000Y-83230000D02*
X160516000Y-84006000D01*
X164240000Y-75940000D02*
X164240000Y-74920000D01*
D15*
%TO.N,Net-(U1-XTAL2{slash}PB7)*%
X153105817Y-74441057D02*
X153105817Y-74011000D01*
X155004760Y-76500000D02*
X155004760Y-76340000D01*
X152164760Y-73050000D02*
X138204760Y-73050000D01*
X138204760Y-73050000D02*
X136754760Y-74500000D01*
X155004760Y-76340000D02*
X153105817Y-74441057D01*
X152753760Y-73658943D02*
X152753760Y-73639000D01*
X152753760Y-73639000D02*
X152164760Y-73050000D01*
X153105817Y-74011000D02*
X152753760Y-73658943D01*
D16*
%TO.N,Net-(J1-D+)*%
X162004760Y-83500000D02*
X160953760Y-82449000D01*
X160953760Y-82449000D02*
X160953760Y-76080232D01*
X157504760Y-65750000D02*
X157004760Y-65250000D01*
X161356760Y-68102000D02*
X159004760Y-65750000D01*
X161356760Y-75677232D02*
X161356760Y-68102000D01*
X159004760Y-65750000D02*
X157504760Y-65750000D01*
X160953760Y-76080232D02*
X161356760Y-75677232D01*
D14*
%TO.N,/D10*%
X146414760Y-81840000D02*
X144204760Y-79630000D01*
X144204760Y-79630000D02*
X144204760Y-79260000D01*
%TD*%
M02*
