M48
; DRILL file {KiCad 9.0.0} date 2025-04-07T20:23:47+0530
; FORMAT={-:-/ absolute / metric / decimal}
; #@! TF.CreationDate,2025-04-07T20:23:47+05:30
; #@! TF.GenerationSoftware,Kicad,Pcbnew,9.0.0
; #@! TF.FileFunction,Plated,1,10,PTH
FMAT,2
METRIC
; #@! TA.AperFunction,Plated,PTH,ViaDrill
T1C0.300
; #@! TA.AperFunction,Plated,PTH,ComponentDrill
T2C1.000
; #@! TA.AperFunction,Plated,PTH,ComponentDrill
T3C1.100
%
G90
G05
T1
X133.255Y-106.75
X134.755Y-75.25
X134.755Y-81.0
X135.755Y-83.0
X136.505Y-102.5
X136.56Y-78.94
X136.755Y-74.5
X137.96Y-83.2
X138.755Y-106.5
X140.255Y-72.0
X141.45Y-79.0
X141.755Y-68.25
X141.755Y-69.5
X142.005Y-70.75
X142.505Y-103.0
X143.255Y-66.75
X143.255Y-77.25
X144.205Y-79.26
X144.255Y-68.75
X144.505Y-100.25
X145.505Y-98.25
X145.6Y-76.44
X145.755Y-74.25
X145.755Y-91.0
X146.255Y-110.0
X146.415Y-81.84
X146.443Y-75.325
X146.555Y-74.499
X146.755Y-69.5
X146.755Y-70.3
X146.882Y-76.483
X147.005Y-72.0
X147.005Y-84.25
X147.31Y-74.84
X147.755Y-68.0
X148.755Y-69.75
X148.755Y-122.75
X149.005Y-110.0
X150.425Y-68.33
X150.755Y-105.5
X151.085Y-66.82
X151.505Y-75.5
X151.505Y-80.5
X151.895Y-73.86
X152.005Y-66.75
X152.135Y-77.2
X152.175Y-79.92
X152.255Y-81.25
X152.255Y-123.5
X153.005Y-75.5
X153.355Y-73.41
X153.495Y-76.48
X154.127Y-65.25
X154.154Y-73.96
X154.355Y-82.05
X154.505Y-81.25
X155.005Y-76.5
X155.255Y-74.0
X155.505Y-71.5
X155.505Y-81.0
X155.852Y-74.56
X155.852Y-76.37
X157.005Y-65.25
X158.056Y-68.301
X158.255Y-65.0
X158.255Y-83.5
X158.877Y-67.75
X159.015Y-81.75
X159.255Y-78.5
X159.4Y-75.366
X159.48Y-72.19
X159.505Y-92.25
X159.755Y-96.5
X160.255Y-74.0
X160.505Y-93.5
X160.806Y-75.449
X161.005Y-88.75
X161.505Y-77.75
X161.835Y-78.84
X162.005Y-68.75
X162.005Y-83.5
X162.45Y-76.2
X163.09Y-71.249
X163.255Y-86.5
X163.375Y-83.28
X163.379Y-75.877
X163.425Y-79.79
X163.45Y-74.15
X163.505Y-82.25
X163.78Y-69.81
X164.755Y-97.0
X165.005Y-76.0
X165.27Y-69.81
X167.255Y-86.5
X167.755Y-106.5
X170.255Y-97.75
X172.505Y-100.25
X173.185Y-69.36
T2
X130.627Y-73.42
X130.627Y-75.96
X130.627Y-78.5
X130.627Y-81.04
X130.627Y-83.58
X130.627Y-86.12
X130.627Y-88.66
X130.627Y-91.2
X130.627Y-93.74
X130.627Y-96.28
X130.627Y-98.82
X130.627Y-101.36
X130.627Y-103.9
X130.627Y-106.44
X130.627Y-108.98
X152.322Y-127.485
X152.322Y-130.025
X154.862Y-127.485
X154.862Y-130.025
X157.402Y-127.485
X157.402Y-130.025
X176.377Y-73.38
X176.377Y-75.92
X176.377Y-78.46
X176.377Y-81.0
X176.377Y-83.54
X176.377Y-86.08
X176.377Y-88.62
X176.377Y-91.16
X176.377Y-93.7
X176.377Y-96.24
X176.377Y-98.78
X176.377Y-101.32
X176.377Y-103.86
X176.377Y-106.4
X176.377Y-108.94
T3
X150.377Y-89.0
X150.377Y-93.5
X156.877Y-89.0
X156.877Y-93.5
M30
